<svg width="131" height="131" viewBox="0 0 131 131" fill="none" xmlns="http://www.w3.org/2000/svg">
<path d="M113.294 88.2567L114.165 80.5844C114.179 80.467 114.093 80.3675 113.974 80.3636L16.3698 76.6716C16.1987 76.6656 16.1132 76.789 16.1788 76.9461L20.9708 88.4338H113.097C113.198 88.4338 113.284 88.3582 113.294 88.2567Z" stroke="#E0001B" stroke-width="2" stroke-linecap="round" stroke-linejoin="round"/>
<path d="M75.0732 78.8916L73.082 71.088C73.066 71.0243 73.0004 70.9606 72.9367 70.9447L63.5537 68.6233C63.4661 68.6014 63.3627 68.6512 63.3249 68.7327L61.3457 73.0274C61.3317 73.0593 61.2959 73.0971 61.2661 73.115L52.9492 78.0542" stroke="#E0001B" stroke-width="2" stroke-linecap="round" stroke-linejoin="round"/>
<path d="M77.8442 78.9972L79.4654 62.2839C79.4754 62.1745 79.5748 62.0949 79.6843 62.1048L84.3668 62.5763C84.4743 62.5862 84.5558 62.6857 84.5459 62.7931L82.9684 79.1901" stroke="#E0001B" stroke-width="2" stroke-linecap="round" stroke-linejoin="round"/>
<path d="M90.408 79.4643L91.9894 63.0314C91.9993 62.922 92.0988 62.8425 92.2082 62.8524L96.8908 63.3238C96.9982 63.3338 97.0798 63.4332 97.0698 63.5407L95.5182 79.6632" stroke="#E0001B" stroke-width="2" stroke-linecap="round" stroke-linejoin="round"/>
<path d="M109.918 80.2102V75.9434C109.918 75.838 109.833 75.7485 109.727 75.7445L102.781 75.4342L99.7594 75.2989C99.6937 75.2969 99.6141 75.3387 99.5803 75.3944L96.9824 79.7209" stroke="#E0001B" stroke-width="2" stroke-linecap="round" stroke-linejoin="round"/>
<path d="M101.436 75.3728L101.589 72.4666C101.595 72.3572 101.689 72.2717 101.798 72.2776L106.228 72.5223C106.337 72.5283 106.421 72.6218 106.415 72.7312L106.264 75.5877" stroke="#E0001B" stroke-width="2" stroke-linecap="round" stroke-linejoin="round"/>
<path d="M39.6416 77.5508L38.6092 74.014C38.5873 73.9424 38.5098 73.8787 38.4361 73.8708L31.6908 73.276C31.5933 73.2681 31.4978 73.3377 31.4779 73.4332L30.6902 77.2107" stroke="#E0001B" stroke-width="2" stroke-linecap="round" stroke-linejoin="round"/>
<path d="M30.8732 76.3316L22.8269 72.0767" stroke="#E0001B" stroke-width="2" stroke-linecap="round" stroke-linejoin="round"/>
<path d="M31.5135 73.2622L22.9082 68.6851" stroke="#E0001B" stroke-width="2" stroke-linecap="round" stroke-linejoin="round"/>
<path d="M42.0465 73.4194L34.2488 69.1665" stroke="#E0001B" stroke-width="2" stroke-linecap="round" stroke-linejoin="round"/>
<path d="M43.0191 70.2821L34.6326 64.3682" stroke="#E0001B" stroke-width="2" stroke-linecap="round" stroke-linejoin="round"/>
<path d="M63.3945 68.5855L65.1112 48.9759C65.1112 48.9759 65.1112 48.964 65.1112 48.96L65.1251 42.7935" stroke="#E0001B" stroke-width="2" stroke-linecap="round" stroke-linejoin="round"/>
<path d="M68.6798 69.8905L67.6116 46.9351" stroke="#E0001B" stroke-width="2" stroke-linecap="round" stroke-linejoin="round"/>
<path d="M61.7217 48.8862L67.7072 49.0255" stroke="#E0001B" stroke-width="2" stroke-linecap="round" stroke-linejoin="round"/>
<path d="M62.1255 58.7173H68.1568" stroke="#E0001B" stroke-width="2" stroke-linecap="round" stroke-linejoin="round"/>
<path d="M63.8003 63.9406L49.9754 63.3777C49.852 63.3717 49.7585 63.4692 49.7685 63.5925L50.3314 70.7378C50.3414 70.8671 50.2439 70.9645 50.1146 70.9506L43.1803 70.2962C43.0927 70.2882 42.9972 70.3499 42.9714 70.4354L40.7534 77.5926" stroke="#E0001B" stroke-width="2" stroke-linecap="round" stroke-linejoin="round"/>
<path d="M52.3884 66.1211L68.507 66.684" stroke="#E0001B" stroke-width="2" stroke-linecap="round" stroke-linejoin="round"/>
<path d="M83.3503 75.1895L90.778 75.6132" stroke="#E0001B" stroke-width="2" stroke-linecap="round" stroke-linejoin="round"/>
<path d="M78.2659 74.752L73.9553 74.5093" stroke="#E0001B" stroke-width="2" stroke-linecap="round" stroke-linejoin="round"/>
<path d="M67.761 50.1796L71.8647 49.1611" stroke="#E0001B" stroke-width="2" stroke-linecap="round" stroke-linejoin="round"/>
<path d="M64.5922 54.8896H60.0229" stroke="#E0001B" stroke-width="2" stroke-linecap="round" stroke-linejoin="round"/>
<path d="M108.028 75.667L113.487 70.0137" stroke="#E0001B" stroke-width="2" stroke-linecap="round" stroke-linejoin="round"/>
<path d="M109.918 77.8194L114.843 74.7183" stroke="#E0001B" stroke-width="2" stroke-linecap="round" stroke-linejoin="round"/>
<path d="M52.5315 70.3223L60.0228 70.6087" stroke="#E0001B" stroke-width="2" stroke-linecap="round" stroke-linejoin="round"/>
<path d="M79.2068 64.9692L84.2872 65.4606" stroke="#E0001B" stroke-width="2" stroke-linecap="round" stroke-linejoin="round"/>
<path d="M91.7168 65.8604L96.7972 66.3557" stroke="#E0001B" stroke-width="2" stroke-linecap="round" stroke-linejoin="round"/>
</svg>
