<svg width="125" height="125" viewBox="0 0 125 125" fill="none" xmlns="http://www.w3.org/2000/svg">
<path d="M62.5 98.1364L62.8543 98.1398M62.8543 98.1398C49.7051 98.0933 43.325 89.2068 40.7488 78.967C39.0507 72.2561 38.9901 64.9489 39.7145 59.1535C40.404 53.7378 43.7303 46.419 47.6739 39.3517C54.3964 27.3066 62.8543 15.9744 62.8543 15.9744H62.9614C62.9614 15.9744 70.7182 26.3563 77.2636 37.819C81.5753 45.3498 85.3535 53.3441 86.0896 59.1535C86.2689 60.5791 86.3994 62.0885 86.4576 63.6678C86.7301 69.3467 86.1967 75.7967 84.3076 81.5805H84.3053C81.3354 90.6789 75.3435 98.0933 63.3333 98.1398H62.8543Z" stroke="#E0001B" stroke-width="2" stroke-miterlimit="10" stroke-linejoin="round"/>
<path d="M62.8518 120.876V85.7033V73.9657V55.0537" stroke="#E0001B" stroke-width="2" stroke-miterlimit="10" stroke-linecap="round" stroke-linejoin="round"/>
<path d="M50.0386 73.2141C49.6223 72.8511 48.9906 72.8943 48.6276 73.3106C48.2647 73.7268 48.3079 74.3585 48.7241 74.7215L50.0386 73.2141ZM48.7241 74.7215L62.1878 86.4614L63.5022 84.954L50.0386 73.2141L48.7241 74.7215Z" fill="#E0001B"/>
<path d="M62.8449 73.9682L71.4589 65.3542" stroke="#E0001B" stroke-width="2" stroke-miterlimit="10" stroke-linecap="round" stroke-linejoin="round"/>
<path d="M104.093 85.1235C102.195 85.629 100.105 85.9061 97.8108 85.9155H97.7036C92.0736 85.8922 87.6781 84.2523 84.3052 81.5805C86.1943 75.7944 86.7277 69.3445 86.4552 63.6678C86.3946 62.0886 86.2642 60.5791 86.0872 59.1536C85.3511 53.3442 81.5729 45.3498 77.2613 37.8191C83.4503 22.839 97.706 3.75 97.706 3.75H97.8131C97.8131 3.75 119.113 32.2473 120.953 46.9291C122.6 60.0317 120.207 80.8258 104.095 85.1235" stroke="#E0001B" stroke-width="2" stroke-miterlimit="10" stroke-linejoin="round"/>
<path d="M97.7036 42.8225V121.347" stroke="#E0001B" stroke-width="2" stroke-miterlimit="10" stroke-linecap="round" stroke-linejoin="round"/>
<path d="M86.4551 63.668L97.7036 73.4792" stroke="#E0001B" stroke-width="2" stroke-miterlimit="10" stroke-linejoin="round"/>
<path d="M111.583 49.2762C111.974 48.8857 111.974 48.2525 111.583 47.862C111.193 47.4715 110.559 47.4715 110.169 47.862L111.583 49.2762ZM98.4107 62.4487L111.583 49.2762L110.169 47.862L96.9965 61.0345L98.4107 62.4487Z" fill="#E0001B"/>
<path d="M47.4669 39.3588C41.2778 24.381 27.0222 3.75 27.0222 3.75H26.915C26.915 3.75 5.61778 32.2473 3.77526 46.9291C1.93508 61.5761 5.14026 85.8316 26.915 85.9155H27.0222C32.6522 85.8922 37.8839 83.4161 41.2568 80.7443" stroke="#E0001B" stroke-width="2" stroke-miterlimit="10" stroke-linejoin="round"/>
<path d="M27.0222 42.8225V121.347" stroke="#E0001B" stroke-width="2" stroke-miterlimit="10" stroke-linecap="round" stroke-linejoin="round"/>
<path d="M38.9302 64.4216C39.3464 64.0587 39.3896 63.427 39.0266 63.0107C38.6636 62.5945 38.0319 62.5513 37.6157 62.9143L38.9302 64.4216ZM37.6157 62.9143L26.3649 72.7255L27.6794 74.2329L38.9302 64.4216L37.6157 62.9143Z" fill="#E0001B"/>
<path d="M27.0222 61.7416L13.8498 48.5691" stroke="#E0001B" stroke-width="2" stroke-miterlimit="10" stroke-linecap="round" stroke-linejoin="round"/>
</svg>
