<svg width="131" height="131" viewBox="0 0 131 131" fill="none" xmlns="http://www.w3.org/2000/svg">
<path d="M99.6768 124.886H31.1919C24.5295 124.886 19.3664 119.069 20.1691 112.466L27.557 51.7069C28.2343 46.1427 32.9636 41.9575 38.5799 41.9575H91.9393C97.5291 41.9575 102.249 46.1066 102.953 51.6443L110.69 112.403C111.534 119.026 106.363 124.886 99.6768 124.886Z" stroke="#E0001B" stroke-width="2" stroke-miterlimit="10"/>
<path d="M45.6815 56.5556L45.8676 26.0376C45.8676 15.2754 54.5978 6.5498 65.3656 6.5498C76.1334 6.5498 84.8636 15.2754 84.8636 26.0376L85.1271 56.5556" stroke="#E0001B" stroke-width="2" stroke-miterlimit="10"/>
<path d="M45.85 61.5696C47.297 61.5696 48.47 60.3966 48.47 58.9496C48.47 57.5026 47.297 56.3296 45.85 56.3296C44.403 56.3296 43.23 57.5026 43.23 58.9496C43.23 60.3966 44.403 61.5696 45.85 61.5696Z" stroke="#E0001B" stroke-width="2" stroke-miterlimit="10"/>
<path d="M85.15 61.5696C86.597 61.5696 87.77 60.3966 87.77 58.9496C87.77 57.5026 86.597 56.3296 85.15 56.3296C83.703 56.3296 82.53 57.5026 82.53 58.9496C82.53 60.3966 83.703 61.5696 85.15 61.5696Z" stroke="#E0001B" stroke-width="2" stroke-miterlimit="10"/>
</svg>
