<svg width="125" height="124" viewBox="0 0 125 124" fill="none" xmlns="http://www.w3.org/2000/svg">
<path d="M4.63333 11.1602L25.0073 20.4201L44.0265 84.2743L106.086 84.3998L120.644 32.7095L28.6677 32.7095L44.0291 84.2743L41.7576 85.7903L39.12 92.4895C38.3799 93.8083 39.33 95.4344 40.8409 95.4395L104.984 95.5983" stroke="#E0001B" stroke-width="2" stroke-miterlimit="10" stroke-linecap="round" stroke-linejoin="round"/>
<path d="M33.7905 49.5493H115.822" stroke="#E0001B" stroke-width="2" stroke-miterlimit="10"/>
<path d="M38.6256 66.7222H111.035" stroke="#E0001B" stroke-width="2" stroke-miterlimit="10"/>
<path d="M61.0816 32.7119V84.4022" stroke="#E0001B" stroke-width="2" stroke-miterlimit="10"/>
<path d="M86.7591 32.7119V84.4022" stroke="#E0001B" stroke-width="2" stroke-miterlimit="10"/>
<path d="M85.9957 101.564C86.5514 99.7283 87.7345 98.0714 89.4681 96.9447C93.3683 94.412 98.5821 95.5208 101.115 99.421C103.647 103.321 102.539 108.535 98.6385 111.068C94.7383 113.6 89.5245 112.491 86.9918 108.591" stroke="#E0001B" stroke-width="2" stroke-miterlimit="10" stroke-linecap="round"/>
<path d="M43.3067 97.5695C44.7715 96.3326 46.6665 95.5874 48.7357 95.5874C53.3861 95.5874 57.1531 99.3569 57.1531 104.005C57.1531 108.653 53.3836 112.422 48.7357 112.422C44.0878 112.422 40.3182 108.653 40.3182 104.005" stroke="#E0001B" stroke-width="2" stroke-miterlimit="10" stroke-linecap="round"/>
</svg>
