<svg width="133" height="135" viewBox="0 0 133 135" fill="none" xmlns="http://www.w3.org/2000/svg">
<path d="M17.5487 114.716L69.1316 103.542L116.652 93.251L112.496 73.9052C108.03 74.8707 104.973 71.9817 104.02 67.4482C103.066 62.9147 104.53 58.4567 108.996 57.4887L105.31 39.2995L6.20667 60.7674L10.1921 79.4796C14.6581 78.5141 18.7723 81.4032 19.726 85.9366C20.6796 90.4701 18.0119 94.9281 13.5459 95.8962L17.5487 114.716Z" stroke="#E0001B" stroke-width="2" stroke-miterlimit="10" stroke-linejoin="round"/>
<path d="M18.4233 58.1008L15.6424 47.7662L113.328 20.7L118.048 38.5598C113.648 39.7785 112.395 44.3892 113.598 48.8591C114.799 53.3266 118.175 56.289 122.575 55.0704L126.919 74.0207L113.176 77.625" stroke="#E0001B" stroke-width="2" stroke-miterlimit="10" stroke-linejoin="round"/>
<path d="M59.9382 54.5867L69.3826 66.0038L84.0206 64.5923L76.2216 77.2203L82.0683 90.8886L67.8065 87.2785L56.7835 97.1362L55.7665 82.2744L43.1055 74.7007L56.7414 69.1275L59.9382 54.5867Z" stroke="#E0001B" stroke-width="2" stroke-miterlimit="10" stroke-linejoin="round"/>
</svg>
