<svg width="125" height="124" viewBox="0 0 125 124" fill="none" xmlns="http://www.w3.org/2000/svg">
<path d="M49.5495 81.1892V108.29C49.5495 108.519 49.737 108.706 49.9663 108.706H75.0743C75.3036 108.706 75.4912 108.519 75.4912 108.29V81.1892" stroke="#E0001B" stroke-width="2" stroke-linecap="round" stroke-linejoin="round"/>
<path d="M81.9643 45.8492H43.0768C42.8466 45.8492 42.66 46.0358 42.66 46.266V80.7729C42.66 81.0031 42.8466 81.1897 43.0768 81.1897H81.9643C82.1945 81.1897 82.3811 81.0031 82.3811 80.7729V46.266C82.3811 46.0358 82.1945 45.8492 81.9643 45.8492Z" stroke="#E0001B" stroke-width="2" stroke-linecap="round" stroke-linejoin="round"/>
<path d="M49.4204 45.849L62.2662 15.6685C62.4788 15.1683 62.8247 15.1683 63.0331 15.6685L75.6247 45.8448" stroke="#E0001B" stroke-width="2" stroke-linecap="round" stroke-linejoin="round"/>
<path d="M62.5203 76.4879C69.6839 76.4879 75.4911 70.6806 75.4911 63.517C75.4911 56.3534 69.6839 50.5462 62.5203 50.5462C55.3567 50.5462 49.5495 56.3534 49.5495 63.517C49.5495 70.6806 55.3567 76.4879 62.5203 76.4879Z" stroke="#E0001B" stroke-width="2" stroke-linecap="round" stroke-linejoin="round"/>
</svg>
