<svg width="141" height="22" fill="none" xmlns="http://www.w3.org/2000/svg"><g clip-path="url(#clip0_1_202)" fill="#fff"><path d="M67.671 14.485H66.51c-.124 0-.194-.07-.194-.195V7.948c0-.126.07-.196.194-.196h4.178c.124 0 .193.07.193.196v1.02c0 .125-.069.195-.193.195h-2.822v1.62h2.13c.125 0 .194.07.194.196v.95c0 .126-.07.195-.194.195h-2.13v2.194c0 .111-.07.167-.194.167zm8.507-1.635c.291-.18.526-.418.692-.726.166-.307.263-.642.263-1.02a1.95 1.95 0 00-.263-1.005 2.04 2.04 0 00-.692-.726 1.747 1.747 0 00-.94-.266c-.332 0-.65.084-.94.266a1.93 1.93 0 00-.692.726 2.094 2.094 0 00-.263 1.006c0 .377.083.712.263 1.02.18.307.4.544.691.726.29.181.609.265.94.265.333 0 .651-.084.942-.265zm-2.697 1.286a3.414 3.414 0 01-1.245-1.271 3.475 3.475 0 01-.456-1.76c0-.643.152-1.23.456-1.76.304-.531.72-.95 1.245-1.257a3.44 3.44 0 011.757-.461c.636 0 1.217.153 1.757.46.525.308.94.727 1.245 1.258.304.53.456 1.117.456 1.76a3.48 3.48 0 01-.456 1.76c-.305.53-.72.964-1.245 1.27a3.404 3.404 0 01-1.757.462 3.156 3.156 0 01-1.757-.461zm9.739-3.311a.82.82 0 00.318-.335.875.875 0 00.11-.46.916.916 0 00-.124-.49.752.752 0 00-.318-.307.994.994 0 00-.457-.098h-1.162v1.83h1.148a1.04 1.04 0 00.484-.14zm-3.154 3.479V7.947c0-.126.069-.196.193-.196h2.642c.457 0 .858.098 1.218.294.346.195.622.46.816.796.193.335.29.74.29 1.173 0 .433-.097.81-.276 1.118-.18.307-.443.558-.761.754l1.162 2.375c.014.041.027.07.027.097 0 .042-.013.07-.041.098-.028.028-.07.028-.125.028h-1.328c-.11 0-.18-.042-.22-.14l-.941-2.053h-1.107v2.011c0 .126-.07.196-.194.196H80.26c-.124-.014-.193-.07-.193-.196zm12.864.181h-1.162c-.124 0-.193-.07-.193-.195V9.204h-1.66c-.125 0-.194-.07-.194-.195V7.948c0-.126.07-.196.194-.196h4.883c.124 0 .193.07.193.196V9.01c0 .125-.069.195-.193.195h-1.674v5.098c-.014.126-.07.182-.194.182zm4.966 0h-1.162c-.124 0-.193-.07-.193-.195V7.948c0-.126.069-.196.193-.196h1.162c.125 0 .194.07.194.196v2.29h2.711v-2.29c0-.126.069-.196.194-.196h1.162c.124 0 .194.07.194.196v6.355c0 .126-.07.196-.194.196h-1.162c-.125 0-.194-.07-.194-.196V11.72H98.09v2.57c0 .14-.07.196-.194.196zm11.247 0h-4.496c-.125 0-.194-.07-.194-.195V7.948c0-.126.069-.196.194-.196h4.44c.125 0 .194.07.194.196v1.034c0 .125-.069.195-.194.195h-3.085v1.215h2.38c.124 0 .193.07.193.196v.95c0 .126-.069.195-.193.195h-2.38v1.355h3.141c.124 0 .193.07.193.196v1.034c0 .111-.069.167-.193.167zm6.003-.182a3.303 3.303 0 01-1.162-.852.173.173 0 01-.055-.125.22.22 0 01.069-.14l.733-.712a.17.17 0 01.125-.056c.055 0 .096.028.138.07a2.098 2.098 0 001.549.67c.305 0 .54-.056.706-.167a.527.527 0 00.249-.461.585.585 0 00-.111-.35c-.069-.097-.207-.181-.387-.265-.18-.084-.443-.168-.775-.28a4.127 4.127 0 01-1.439-.726c-.401-.321-.608-.782-.608-1.355 0-.349.083-.67.263-.964.179-.293.442-.516.802-.698.36-.168.788-.265 1.3-.265.429 0 .844.083 1.231.237a3.64 3.64 0 011.052.629c.041.042.069.084.069.14 0 .041-.014.083-.056.14l-.663.767a.154.154 0 01-.139.07.167.167 0 01-.124-.056 2.723 2.723 0 00-.623-.363 1.796 1.796 0 00-.691-.14c-.263 0-.457.042-.609.126a.42.42 0 00-.221.391c0 .14.041.252.124.335a.935.935 0 00.346.224c.138.056.346.14.636.237.014 0 .056.014.125.042.456.154.83.322 1.134.49.304.18.526.39.692.656.166.265.249.572.249.95 0 .419-.097.796-.305 1.117a1.981 1.981 0 01-.871.74 3.115 3.115 0 01-1.287.266c-.553-.028-1.023-.126-1.466-.322zm8.12.182h-1.162c-.124 0-.194-.07-.194-.195V9.204h-1.66c-.124 0-.193-.07-.193-.195V7.948c0-.126.069-.196.193-.196h4.884c.124 0 .193.07.193.196V9.01c0 .125-.069.195-.193.195h-1.674v5.098c0 .126-.069.182-.194.182zm6.294-2.445l-.761-2.164-.069-.28-.069.28-.761 2.165h1.66zm2.352 2.305c0 .042-.014.084-.042.098-.027.028-.069.042-.124.042h-1.19c-.111 0-.18-.056-.207-.154l-.346-.991h-2.546l-.345.991c-.028.112-.097.154-.208.154h-1.189c-.056 0-.097-.014-.125-.042a.126.126 0 01-.041-.098c0-.027 0-.056.013-.083l2.449-6.37c.041-.098.11-.154.221-.154h1.024c.11 0 .18.056.221.154l2.435 6.37v.083zm3.569.14h-1.162c-.125 0-.194-.07-.194-.195v-2.417l-2.186-3.883c-.013-.042-.027-.07-.027-.112a.13.13 0 01.041-.098c.028-.028.069-.028.125-.028h1.369c.111 0 .18.042.221.14l1.245 2.514 1.218-2.514c.041-.098.124-.14.221-.14h1.37c.055 0 .096.014.124.028a.127.127 0 01.042.098.43.43 0 01-.028.112l-2.186 3.869v2.444c0 .126-.069.182-.193.182zM.996 1.117h56.383v19.877H.996V1.117zM0 22h58.375V.112H0V22z"/><path d="M15.631 5.825v10.434l.803.112v.6h-4.012v-.6l.871-.112v-4.75H8.162v4.75l.803.112v.6H5.02v-.6l.789-.112V5.825l-.789-.098v-.6h3.943v.6l-.803.098v4.47h5.133v-4.47l-.872-.098v-.6h4.012v.6l-.803.098zm5.464 10.504l.747.112v.53h-3.68v-.53l.762-.112V9.19l-.761-.112v-.53h2.932v7.78zm2.352.126l.733-.098V5.755l-.733-.098v-.53h2.933v11.23l.747.098v.516h-3.68v-.516zm8.161-7.906h1.979v.796h-1.979v5.014c0 1.3.263 1.705 1.44 1.705.428 0 .815 0 1.175-.084v.572c-1.065.378-1.964.545-2.711.545-1.688 0-2.09-.768-2.09-2.249V9.331h-1.549v-.796h1.605V6.789l2.144-.643v2.403h-.014zm11.883 4.288c0 2.626-1.757 4.386-4.523 4.386-2.684 0-4.385-1.146-4.385-4.386 0-2.71 1.756-4.526 4.537-4.526 2.725 0 4.371 1.634 4.371 4.526zm-2.407-.042c0-2.668-.788-3.827-2.075-3.827-1.245 0-2.033 1.117-2.033 3.827 0 2.682.788 3.8 2.033 3.8 1.342-.015 2.075-1.076 2.075-3.8zm12.408 3.645v.545H49.8v-.544l.733-.112v-4.805c0-1.327-.484-1.928-1.494-1.928-.47 0-1.203.321-1.743.699v6.02l.76.112v.544H44.35v-.544l.76-.112V9.247l-.76-.112V8.55h2.946v1.173c.913-.74 1.798-1.327 3.043-1.327 1.66 0 2.393.978 2.393 2.877v5.07l.761.099zm-32.3-10.126c0 .656-.525 1.187-1.19 1.187-.65 0-1.19-.53-1.19-1.187s.527-1.188 1.19-1.188c.665 0 1.19.531 1.19 1.188zM59.855.754h.18c.125 0 .153-.028.153-.125 0-.098-.042-.112-.153-.112h-.18v.237zM60.34.63c0 .111-.042.181-.153.223l.18.265h-.166l-.166-.251h-.18v.251h-.138V.391h.318c.208 0 .305.084.305.238zm-.913.14c0 .334.263.6.595.6a.602.602 0 00.594-.6.593.593 0 10-1.19 0zm1.342 0a.762.762 0 01-.761.768.762.762 0 01-.761-.769.762.762 0 111.522 0zm78.613 8.184a.03.03 0 01-.028.028h-.166a.03.03 0 01-.028-.028v-.95h-.318a.03.03 0 01-.028-.028v-.154a.03.03 0 01.028-.028h.844a.03.03 0 01.028.028v.154a.03.03 0 01-.028.028h-.318v.95h.014zm.705 0a.03.03 0 01-.028.028h-.166c-.013 0-.027-.014-.027-.028V7.822c0-.014.014-.028.027-.028h.249a.03.03 0 01.028.028l.249.67.014.057.014-.056.249-.67c0-.015.014-.029.027-.029h.249a.03.03 0 01.028.028v1.132a.03.03 0 01-.028.028h-.166c-.013 0-.027-.014-.027-.028v-.797l-.014.056-.221.587a.03.03 0 01-.028.028h-.152a.03.03 0 01-.028-.028l-.235-.587-.014-.056v.796z"/></g><defs><clipPath id="clip0_1_202"><path fill="#fff" d="M0 0h141v22H0z"/></clipPath></defs></svg>