<?xml version="1.0" encoding="utf-8"?>
<!-- Generator: Adobe Illustrator 28.0.0, SVG Export Plug-In . SVG Version: 6.00 Build 0)  -->
<svg version="1.1" id="Layer_1" xmlns="http://www.w3.org/2000/svg" xmlns:xlink="http://www.w3.org/1999/xlink" x="0px" y="0px"
	 viewBox="0 0 1019.3 157.5" style="enable-background:new 0 0 1019.3 157.5;" xml:space="preserve">
<g>
	<g>
		<path d="M489.2,103.7h-8.4c-0.9,0-1.4-0.5-1.4-1.4V56.9c0-0.9,0.5-1.4,1.4-1.4H511c0.9,0,1.4,0.5,1.4,1.4v7.3
			c0,0.9-0.5,1.4-1.4,1.4h-20.4v11.6H506c0.9,0,1.4,0.5,1.4,1.4v6.8c0,0.9-0.5,1.4-1.4,1.4h-15.4v15.7
			C490.6,103.3,490.1,103.7,489.2,103.7L489.2,103.7z"/>
	</g>
	<g>
		<path d="M550.7,92c2.1-1.3,3.8-3,5-5.2c1.2-2.2,1.9-4.6,1.9-7.3c0-2.6-0.6-5-1.9-7.2c-1.3-2.2-2.9-3.9-5-5.2
			c-2.1-1.3-4.4-1.9-6.8-1.9c-2.4,0-4.7,0.6-6.8,1.9c-2.1,1.3-3.8,3-5,5.2c-1.2,2.2-1.9,4.6-1.9,7.2c0,2.7,0.6,5.1,1.9,7.3
			c1.3,2.2,2.9,3.9,5,5.2c2.1,1.3,4.4,1.9,6.8,1.9C546.3,93.9,548.6,93.3,550.7,92L550.7,92z M531.2,101.2c-3.8-2.2-6.8-5.3-9-9.1
			c-2.2-3.8-3.3-8-3.3-12.6c0-4.6,1.1-8.8,3.3-12.6c2.2-3.8,5.2-6.8,9-9c3.8-2.2,8.1-3.3,12.7-3.3c4.6,0,8.8,1.1,12.7,3.3
			c3.8,2.2,6.8,5.2,9,9c2.2,3.8,3.3,8,3.3,12.6c0,4.6-1.1,8.8-3.3,12.6c-2.2,3.8-5.2,6.9-9,9.1c-3.8,2.2-8,3.3-12.7,3.3
			C539.2,104.6,535,103.5,531.2,101.2L531.2,101.2z"/>
	</g>
	<g>
		<path d="M601.6,77.5c1-0.6,1.8-1.4,2.3-2.4c0.6-1,0.8-2.1,0.8-3.3c0-1.4-0.3-2.5-0.9-3.5c-0.6-1-1.3-1.7-2.3-2.2
			c-1-0.5-2.1-0.7-3.3-0.7h-8.4v13.1h8.3C599.5,78.4,600.6,78.1,601.6,77.5L601.6,77.5z M578.8,102.4V56.9c0-0.9,0.5-1.4,1.4-1.4
			h19.1c3.3,0,6.2,0.7,8.8,2.1c2.5,1.4,4.5,3.3,5.9,5.7c1.4,2.4,2.1,5.3,2.1,8.4c0,3.1-0.7,5.8-2,8c-1.3,2.2-3.2,4-5.5,5.4l8.4,17
			c0.1,0.3,0.2,0.5,0.2,0.7c0,0.3-0.1,0.5-0.3,0.7c-0.2,0.2-0.5,0.2-0.9,0.2h-9.6c-0.8,0-1.3-0.3-1.6-1L598,88c-0.4,0-1,0-1.8,0
			h-6.2v14.4c0,0.9-0.5,1.4-1.4,1.4h-8.4C579.3,103.7,578.8,103.3,578.8,102.4L578.8,102.4z"/>
	</g>
	<g>
		<path d="M671.8,103.7h-8.4c-0.9,0-1.4-0.5-1.4-1.4V65.9h-12c-0.9,0-1.4-0.5-1.4-1.4v-7.6c0-0.9,0.5-1.4,1.4-1.4h35.3
			c0.9,0,1.4,0.5,1.4,1.4v7.6c0,0.9-0.5,1.4-1.4,1.4h-12.1v36.5C673.1,103.3,672.7,103.7,671.8,103.7L671.8,103.7z"/>
	</g>
	<g>
		<path d="M707.7,103.7h-8.4c-0.9,0-1.4-0.5-1.4-1.4V56.9c0-0.9,0.5-1.4,1.4-1.4h8.4c0.9,0,1.4,0.5,1.4,1.4v16.4h19.6V56.9
			c0-0.9,0.5-1.4,1.4-1.4h8.4c0.9,0,1.4,0.5,1.4,1.4v45.5c0,0.9-0.5,1.4-1.4,1.4h-8.4c-0.9,0-1.4-0.5-1.4-1.4V83.9h-19.6v18.4
			C709.1,103.3,708.6,103.7,707.7,103.7L707.7,103.7z"/>
	</g>
	<g>
		<path d="M789,103.7h-32.5c-0.9,0-1.4-0.5-1.4-1.4V56.9c0-0.9,0.5-1.4,1.4-1.4h32.1c0.9,0,1.4,0.5,1.4,1.4v7.4
			c0,0.9-0.5,1.4-1.4,1.4h-22.3v8.7h17.2c0.9,0,1.4,0.5,1.4,1.4v6.8c0,0.9-0.5,1.4-1.4,1.4h-17.2v9.7H789c0.9,0,1.4,0.5,1.4,1.4v7.4
			C790.4,103.3,789.9,103.7,789,103.7L789,103.7z"/>
	</g>
	<g>
		<path d="M832.4,102.4c-3.2-1.4-6-3.4-8.4-6.1c-0.3-0.3-0.4-0.6-0.4-0.9c0-0.3,0.2-0.7,0.5-1l5.3-5.1c0.3-0.3,0.6-0.4,0.9-0.4
			c0.4,0,0.7,0.2,1,0.5c1.5,1.6,3.3,2.8,5.2,3.6c1.9,0.8,3.9,1.2,6,1.2c2.2,0,3.9-0.4,5.1-1.2c1.2-0.8,1.8-1.9,1.8-3.3
			c0-1-0.3-1.8-0.8-2.5c-0.5-0.7-1.5-1.3-2.8-1.9c-1.3-0.6-3.2-1.2-5.6-2c-4-1.1-7.4-2.9-10.4-5.2c-2.9-2.3-4.4-5.6-4.4-9.7
			c0-2.5,0.6-4.8,1.9-6.9c1.3-2.1,3.2-3.7,5.8-5c2.6-1.2,5.7-1.9,9.4-1.9c3.1,0,6.1,0.6,8.9,1.7c2.8,1.1,5.4,2.6,7.6,4.5
			c0.3,0.3,0.5,0.6,0.5,1c0,0.3-0.1,0.6-0.4,1l-4.8,5.5c-0.3,0.4-0.6,0.5-1,0.5c-0.3,0-0.6-0.1-0.9-0.4c-1.3-1-2.8-1.9-4.5-2.6
			c-1.7-0.7-3.4-1-5-1c-1.9,0-3.3,0.3-4.4,0.9c-1.1,0.6-1.6,1.6-1.6,2.8c0,1,0.3,1.8,0.9,2.4c0.6,0.6,1.4,1.2,2.5,1.6
			c1,0.4,2.5,1,4.6,1.7c0.1,0,0.4,0.1,0.9,0.3c3.3,1.1,6,2.3,8.2,3.5c2.2,1.3,3.8,2.8,5,4.7c1.2,1.9,1.8,4.1,1.8,6.8
			c0,3-0.7,5.7-2.2,8c-1.5,2.3-3.6,4.1-6.3,5.3s-5.8,1.9-9.3,1.9C839,104.5,835.6,103.8,832.4,102.4L832.4,102.4z"/>
	</g>
	<g>
		<path d="M891.1,103.7h-8.4c-0.9,0-1.4-0.5-1.4-1.4V65.9h-12c-0.9,0-1.4-0.5-1.4-1.4v-7.6c0-0.9,0.5-1.4,1.4-1.4h35.3
			c0.9,0,1.4,0.5,1.4,1.4v7.6c0,0.9-0.5,1.4-1.4,1.4h-12.1v36.5C892.5,103.3,892,103.7,891.1,103.7L891.1,103.7z"/>
	</g>
	<g>
		<path d="M936.6,86.2l-5.5-15.5l-0.5-2l-0.5,2l-5.5,15.5H936.6L936.6,86.2z M953.6,102.7c0,0.3-0.1,0.6-0.3,0.7
			c-0.2,0.2-0.5,0.3-0.9,0.3h-8.6c-0.8,0-1.3-0.4-1.5-1.1l-2.5-7.1h-18.4l-2.5,7.1c-0.2,0.8-0.7,1.1-1.5,1.1h-8.6
			c-0.4,0-0.7-0.1-0.9-0.3c-0.2-0.2-0.3-0.4-0.3-0.7c0-0.2,0-0.4,0.1-0.6l17.7-45.6c0.3-0.7,0.8-1.1,1.6-1.1h7.4
			c0.8,0,1.3,0.4,1.6,1.1l17.6,45.6C953.6,102.4,953.6,102.6,953.6,102.7L953.6,102.7z"/>
	</g>
	<g>
		<path d="M979.4,103.7H971c-0.9,0-1.4-0.5-1.4-1.4V85l-15.8-27.8c-0.1-0.3-0.2-0.5-0.2-0.8c0-0.3,0.1-0.5,0.3-0.7
			c0.2-0.2,0.5-0.2,0.9-0.2h9.9c0.8,0,1.3,0.3,1.6,1l9,18l8.8-18c0.3-0.7,0.9-1,1.6-1h9.9c0.4,0,0.7,0.1,0.9,0.2
			c0.2,0.2,0.3,0.4,0.3,0.7c0,0.2-0.1,0.5-0.2,0.8l-15.8,27.7v17.5C980.8,103.3,980.3,103.7,979.4,103.7L979.4,103.7z"/>
	</g>
	<g>
		<path d="M7.2,8l407.6,0v142.3l-407.6,0L7.2,8L7.2,8z M0,157.5l422,0l0-156.7L0,0.8V157.5L0,157.5z"/>
	</g>
	<g>
		<polygon points="113,41.7 113,116.4 118.8,117.2 118.8,121.5 89.8,121.5 89.8,117.2 96.1,116.4 96.1,82.4 59,82.4 59,116.4 
			64.8,117.2 64.8,121.5 36.3,121.5 36.3,117.2 42,116.4 42,41.7 36.3,41 36.3,36.7 64.8,36.7 64.8,41 59,41.7 59,73.7 96.1,73.7 
			96.1,41.7 89.8,41 89.8,36.7 118.8,36.7 118.8,41 113,41.7 		"/>
	</g>
	<g>
		<polygon points="152.5,116.9 157.9,117.7 157.9,121.5 131.3,121.5 131.3,117.7 136.8,116.9 136.8,65.8 131.3,65 131.3,61.2 
			152.5,61.2 152.5,116.9 		"/>
	</g>
	<g>
		<polygon points="169.5,117.8 174.8,117.1 174.8,41.2 169.5,40.5 169.5,36.7 190.7,36.7 190.7,117.1 196.1,117.8 196.1,121.5 
			169.5,121.5 169.5,117.8 		"/>
	</g>
	<g>
		<path d="M228.5,61.2h14.3v5.7l-14.3,0v35.9c0,9.3,1.9,12.2,10.4,12.2c3.1,0,5.9,0,8.5-0.6v4.1c-7.7,2.7-14.2,3.9-19.6,3.9
			c-12.2,0-15.1-5.5-15.1-16.1V66.8l-11.2,0v-5.7l11.6,0V48.6l15.5-4.6V61.2L228.5,61.2z"/>
	</g>
	<g>
		<path d="M314.4,91.9c0,18.8-12.7,31.4-32.7,31.4c-19.4,0-31.7-8.2-31.7-31.4c0-19.4,12.7-32.4,32.8-32.4
			C302.5,59.5,314.4,71.2,314.4,91.9 M297,91.6c0-19.1-5.7-27.4-15-27.4c-9,0-14.7,8-14.7,27.4c0,19.2,5.7,27.2,14.7,27.2
			C291.7,118.7,297,111.1,297,91.6"/>
	</g>
	<g>
		<path d="M386.7,117.7v3.9H360v-3.9l5.3-0.8V82.5c0-9.5-3.5-13.8-10.8-13.8c-3.4,0-8.7,2.3-12.6,5v43.1l5.5,0.8v3.9h-26.8v-3.9
			l5.5-0.8V66.2l-5.5-0.8v-4.2l21.3,0v8.4c6.6-5.3,13-9.5,22-9.5c12,0,17.3,7,17.3,20.6l0,36.3L386.7,117.7L386.7,117.7z"/>
	</g>
	<g>
		<path d="M153.2,45.2c0,4.7-3.8,8.5-8.6,8.5c-4.7,0-8.6-3.8-8.6-8.5c0-4.7,3.8-8.5,8.6-8.5C149.4,36.7,153.2,40.5,153.2,45.2"/>
	</g>
	<g>
		<path d="M432.7,5.4h1.3c0.9,0,1.1-0.2,1.1-0.9s-0.3-0.8-1.1-0.8h-1.3V5.4L432.7,5.4z M436.2,4.5c0,0.8-0.3,1.3-1.1,1.6l1.3,1.9
			h-1.2l-1.2-1.8c-0.1,0-0.2,0-0.3,0h-1V8h-1V2.8h2.3C435.5,2.8,436.2,3.4,436.2,4.5L436.2,4.5z M429.6,5.5c0,2.4,1.9,4.3,4.3,4.3
			c2.3,0,4.3-1.9,4.3-4.3c0-2.4-1.9-4.3-4.3-4.3C431.5,1.2,429.6,3.1,429.6,5.5L429.6,5.5z M439.3,5.5c0,3-2.4,5.5-5.5,5.5
			c-3,0-5.5-2.4-5.5-5.5c0-3,2.4-5.5,5.5-5.5C436.9,0,439.3,2.4,439.3,5.5L439.3,5.5z"/>
	</g>
	<g>
		<path d="M1007.6,64.1c0,0.1-0.1,0.2-0.2,0.2h-1.2c-0.1,0-0.2-0.1-0.2-0.2v-6.8h-2.3c-0.1,0-0.2-0.1-0.2-0.2V56
			c0-0.1,0.1-0.2,0.2-0.2h6.1c0.1,0,0.2,0.1,0.2,0.2v1.1c0,0.1-0.1,0.2-0.2,0.2h-2.3V64.1z"/>
		<path d="M1012.7,64.1c0,0.1-0.1,0.2-0.2,0.2h-1.2c-0.1,0-0.2-0.1-0.2-0.2V56c0-0.1,0.1-0.2,0.2-0.2h1.8c0.1,0,0.2,0.1,0.2,0.2
			l1.8,4.8l0.1,0.4h0l0.1-0.4l1.8-4.8c0-0.1,0.1-0.2,0.2-0.2h1.8c0.1,0,0.2,0.1,0.2,0.2v8.1c0,0.1-0.1,0.2-0.2,0.2h-1.2
			c-0.1,0-0.2-0.1-0.2-0.2l0-5.3l0-0.4h0l-0.1,0.4L1016,63c0,0.1-0.1,0.2-0.2,0.2h-1.1c-0.1,0-0.2-0.1-0.2-0.2l-1.7-4.2l-0.1-0.4h0
			l0,0.4L1012.7,64.1z"/>
	</g>
</g>
</svg>
