<svg width="125" height="124" viewBox="0 0 125 124" fill="none" xmlns="http://www.w3.org/2000/svg">
<path d="M39.7151 26.1929H108.765C109.008 26.1929 109.207 26.3919 109.207 26.6351V103.013C109.207 103.256 109.008 103.455 108.765 103.455H16.2357C15.9925 103.455 15.7935 103.256 15.7935 103.013V26.6351C15.7935 26.3919 15.9925 26.1929 16.2357 26.1929H27.8361" stroke="#1D1D1B" stroke-width="2" stroke-linecap="round" stroke-linejoin="round"/>
<path d="M33.7754 32.1324C37.0557 32.1324 39.7149 29.4732 39.7149 26.1929C39.7149 22.9126 37.0557 20.2534 33.7754 20.2534C30.4951 20.2534 27.8359 22.9126 27.8359 26.1929C27.8359 29.4732 30.4951 32.1324 33.7754 32.1324Z" stroke="#1D1D1B" stroke-width="2" stroke-linecap="round" stroke-linejoin="round"/>
<path d="M50.6431 61.4981C53.9234 61.4981 56.5826 58.8389 56.5826 55.5586C56.5826 52.2783 53.9234 49.6191 50.6431 49.6191C47.3628 49.6191 44.7036 52.2783 44.7036 55.5586C44.7036 58.8389 47.3628 61.4981 50.6431 61.4981Z" stroke="#1D1D1B" stroke-width="2" stroke-linecap="round" stroke-linejoin="round"/>
<path d="M54.0664 50.7027L60.5101 41.1323C61.3415 39.8675 62.7479 39.1024 64.2648 39.0847L80.1064 38.9387" stroke="#1D1D1B" stroke-width="2" stroke-linecap="round" stroke-linejoin="round"/>
<path d="M15.7935 69.826H38.406C40.0512 69.826 41.6301 69.1803 42.802 68.026C42.8241 68.0039 42.8507 67.9685 42.8684 67.9464L47.6447 60.689" stroke="#1D1D1B" stroke-width="2" stroke-linecap="round" stroke-linejoin="round"/>
<path d="M24.3511 65.2573V69.8258" stroke="#1D1D1B" stroke-width="2" stroke-linecap="round" stroke-linejoin="round"/>
<path d="M33.7754 32.1323V81.4306" stroke="#1D1D1B" stroke-width="2" stroke-linecap="round" stroke-linejoin="round"/>
<path d="M86.0459 44.8827C89.3262 44.8827 91.9854 42.2235 91.9854 38.9432C91.9854 35.6629 89.3262 33.0037 86.0459 33.0037C82.7657 33.0037 80.1064 35.6629 80.1064 38.9432C80.1064 42.2235 82.7657 44.8827 86.0459 44.8827Z" stroke="#1D1D1B" stroke-width="2" stroke-linecap="round" stroke-linejoin="round"/>
<path d="M56.5874 26.1929V30.2793" stroke="#1D1D1B" stroke-width="2" stroke-linecap="round" stroke-linejoin="round"/>
<path d="M80.5444 26.1929V30.7304" stroke="#1D1D1B" stroke-width="2" stroke-linecap="round" stroke-linejoin="round"/>
<path d="M33.7754 93.3141C37.0557 93.3141 39.7149 90.6548 39.7149 87.3746C39.7149 84.0943 37.0557 81.4351 33.7754 81.4351C30.4951 81.4351 27.8359 84.0943 27.8359 87.3746C27.8359 90.6548 30.4951 93.3141 33.7754 93.3141Z" stroke="#1D1D1B" stroke-width="2" stroke-linecap="round" stroke-linejoin="round"/>
<path d="M15.7935 87.3745H27.8361" stroke="#1D1D1B" stroke-width="2" stroke-linecap="round" stroke-linejoin="round"/>
<path d="M39.7148 87.3746H64.6404C64.7642 87.3746 64.9279 87.2906 64.9986 87.1889L78.7572 67.9773C78.828 67.8755 78.9916 67.7915 79.1154 67.7915H109.202" stroke="#1D1D1B" stroke-width="2" stroke-linecap="round" stroke-linejoin="round"/>
<path d="M33.7754 93.3142V103.455" stroke="#1D1D1B" stroke-width="2" stroke-linecap="round" stroke-linejoin="round"/>
<path d="M96.1958 63.3247V67.7959" stroke="#1D1D1B" stroke-width="2" stroke-linecap="round" stroke-linejoin="round"/>
<path d="M56.5874 55.5586H66.8079C66.9229 55.5586 67.0777 55.6338 67.1485 55.7222L78.0722 69.1005L86.621 79.4935" stroke="#1D1D1B" stroke-width="2" stroke-linecap="round" stroke-linejoin="round"/>
<path d="M90.2559 90.1344C93.5362 90.1344 96.1954 87.4752 96.1954 84.1949C96.1954 80.9146 93.5362 78.2554 90.2559 78.2554C86.9756 78.2554 84.3164 80.9146 84.3164 84.1949C84.3164 87.4752 86.9756 90.1344 90.2559 90.1344Z" stroke="#1D1D1B" stroke-width="2" stroke-linecap="round" stroke-linejoin="round"/>
<path d="M52.0762 81.957V87.3747" stroke="#1D1D1B" stroke-width="2" stroke-linecap="round" stroke-linejoin="round"/>
<path d="M82.8481 98.3867V103.455" stroke="#1D1D1B" stroke-width="2" stroke-linecap="round" stroke-linejoin="round"/>
<path d="M20.8308 47.7441H15.7935" stroke="#1D1D1B" stroke-width="2" stroke-linecap="round" stroke-linejoin="round"/>
<path d="M91.9854 38.9431H109.207" stroke="#1D1D1B" stroke-width="2" stroke-linecap="round" stroke-linejoin="round"/>
<path d="M109.207 53.9578H104.006" stroke="#1D1D1B" stroke-width="2" stroke-linecap="round" stroke-linejoin="round"/>
</svg>
