<svg width="117" height="116" viewBox="0 0 117 116" fill="none" xmlns="http://www.w3.org/2000/svg">
<path d="M12.4866 107.099H104.191" stroke="#E0001B" stroke-width="2" stroke-miterlimit="10" stroke-linecap="round"/>
<path d="M73.3865 35.5731L53.4731 35.5731L55.2352 54.2861L60.5056 107.106H25.6533L15.8916 9.27979H75.5687L73.3865 35.5731Z" stroke="#E0001B" stroke-width="2" stroke-miterlimit="10" stroke-linejoin="round"/>
<path d="M96.7798 35.5732L95.2331 54.0669C93.0931 53.2539 86.3695 51.0539 75.2253 54.0669C74.068 54.3812 72.9005 54.6227 71.7432 54.8046C64.7149 55.9163 57.9739 54.8565 55.313 54.3266L53.4731 35.5732H96.7798Z" stroke="#E0001B" stroke-width="2" stroke-miterlimit="10" stroke-linejoin="round"/>
<path d="M95.2331 53.9006L90.794 107.107H60.6306L55.2131 53.5532" stroke="#E0001B" stroke-width="2" stroke-miterlimit="10"/>
<path d="M17.4705 24.3396C17.4705 24.3396 32.3375 27.0685 46.2294 24.3396C64.9067 20.6729 74.5679 24.3396 74.5679 24.3396" stroke="#E0001B" stroke-width="2" stroke-miterlimit="10"/>
</svg>
