<svg width="117" height="116" viewBox="0 0 117 116" fill="none" xmlns="http://www.w3.org/2000/svg">
<path d="M42.2389 101.693V41.408C42.2389 41.1906 42.061 41.0127 41.8436 41.0127H22.4008C22.1834 41.0127 22.0055 41.1906 22.0055 41.408V101.298C22.0055 101.515 22.1834 101.693 22.4008 101.693H94.6846C94.902 101.693 95.0799 101.515 95.0799 101.298V41.408C95.0799 41.1906 94.902 41.0127 94.6846 41.0127H75.2418C75.0244 41.0127 74.8465 41.1906 74.8465 41.408V101.693" stroke="#E0001B" stroke-width="2" stroke-linecap="round" stroke-linejoin="round"/>
<path d="M27.7062 27.7017L31.5331 14.8611C31.7624 14.1218 32.1419 14.1218 32.3791 14.8611L36.2692 27.7017" stroke="#E0001B" stroke-width="2" stroke-linecap="round" stroke-linejoin="round"/>
<path d="M24.4092 22.0562V41.0126" stroke="#E0001B" stroke-width="2" stroke-linecap="round" stroke-linejoin="round"/>
<path d="M39.6455 21.9614V41.0128" stroke="#E0001B" stroke-width="2" stroke-linecap="round" stroke-linejoin="round"/>
<path d="M24.4092 27.6978H39.6455" stroke="#E0001B" stroke-width="2" stroke-linecap="round" stroke-linejoin="round"/>
<path d="M80.338 28.1324L84.3902 15.1495C84.5958 14.4892 84.9358 14.4892 85.1453 15.1495L89.2608 28.1324" stroke="#E0001B" stroke-width="2" stroke-linecap="round" stroke-linejoin="round"/>
<path d="M77.2147 22.4912V41.0128" stroke="#E0001B" stroke-width="2" stroke-linecap="round" stroke-linejoin="round"/>
<path d="M92.451 22.396V41.0125" stroke="#E0001B" stroke-width="2" stroke-linecap="round" stroke-linejoin="round"/>
<path d="M77.2147 28.1328H92.4511" stroke="#E0001B" stroke-width="2" stroke-linecap="round" stroke-linejoin="round"/>
<path d="M42.2391 54.7308L58.0883 41.5582C58.2266 41.4435 58.452 41.4435 58.5903 41.5582L74.8467 54.7308" stroke="#E0001B" stroke-width="2" stroke-linecap="round" stroke-linejoin="round"/>
<path d="M12.8733 65.1562H103.801" stroke="#E0001B" stroke-width="2" stroke-linecap="round" stroke-linejoin="round"/>
<path d="M42.2391 81.5075C42.2391 75.53 49.5371 70.6831 58.5429 70.6831C67.5487 70.6831 74.8467 75.53 74.8467 81.5075" stroke="#E0001B" stroke-width="2" stroke-linecap="round" stroke-linejoin="round"/>
</svg>
