<svg width="117" height="116" viewBox="0 0 117 116" fill="none" xmlns="http://www.w3.org/2000/svg">
<path d="M81.77 82.3389H35.3004C35.0866 82.3389 34.9133 82.5122 34.9133 82.726V95.7475C34.9133 95.9613 35.0866 96.1346 35.3004 96.1346H81.77C81.9838 96.1346 82.1571 95.9613 82.1571 95.7475V82.726C82.1571 82.5122 81.9838 82.3389 81.77 82.3389Z" stroke="#E0001B" stroke-width="2" stroke-linecap="round" stroke-linejoin="round"/>
<path d="M48.8716 82.3389V96.1346" stroke="#E0001B" stroke-width="2" stroke-linecap="round" stroke-linejoin="round"/>
<path d="M67.4324 82.3389V96.1346" stroke="#E0001B" stroke-width="2" stroke-linecap="round" stroke-linejoin="round"/>
<path d="M60.1784 52.4716H55.4482C55.2082 52.4716 55.0146 52.2781 55.0146 52.0381V43.2938C55.0146 43.0809 55.1888 42.9067 55.4017 42.9067H60.2248C60.4377 42.9067 60.6119 43.0809 60.6119 43.2938V52.0381C60.6119 52.2781 60.4184 52.4716 60.1784 52.4716Z" stroke="#E0001B" stroke-width="2" stroke-linecap="round" stroke-linejoin="round"/>
<path d="M48.8447 67.645H67.7422" stroke="#E0001B" stroke-width="2" stroke-linecap="round" stroke-linejoin="round"/>
<path d="M44.3428 82.3392L53.4896 52.4717" stroke="#E0001B" stroke-width="2" stroke-linecap="round" stroke-linejoin="round"/>
<path d="M72.6811 82.3198L62.6362 52.4717" stroke="#E0001B" stroke-width="2" stroke-linecap="round" stroke-linejoin="round"/>
<path d="M57.1782 42.9069L59.6246 36.04C59.6711 35.9122 59.6362 35.7187 59.5472 35.6142L57.4453 33.1136C57.3524 33.0052 57.3214 32.8039 57.3756 32.6723L61.0491 23.5448C61.1691 23.2507 61.4671 23.1694 61.7187 23.3668L67.9934 28.2673C68.0785 28.3331 68.2334 28.3718 68.3418 28.3524L70.6604 27.9073" stroke="#E0001B" stroke-width="2" stroke-linecap="round" stroke-linejoin="round"/>
<path d="M57.2828 32.916L54.8093 35.3585C54.6738 35.494 54.6467 35.734 54.7474 35.8966L55.6493 37.3327C55.7306 37.4643 55.7267 37.6772 55.6416 37.8049L53.981 40.2474" stroke="#E0001B" stroke-width="2" stroke-linecap="round" stroke-linejoin="round"/>
<path d="M60.1089 25.898L51.4807 16.368C51.1246 15.977 50.7878 16.0854 50.7298 16.6119L50.2227 21.1717C50.215 21.2375 50.2304 21.3382 50.2575 21.3962L53.1723 27.9844C53.1955 28.0348 53.2458 28.1044 53.2845 28.1393L57.6857 31.925" stroke="#E0001B" stroke-width="2" stroke-linecap="round" stroke-linejoin="round"/>
<path d="M60.5928 20.5913C61.728 20.5913 62.6482 19.6711 62.6482 18.5359C62.6482 17.4007 61.728 16.4805 60.5928 16.4805C59.4576 16.4805 58.5374 17.4007 58.5374 18.5359C58.5374 19.6711 59.4576 20.5913 60.5928 20.5913Z" stroke="#E0001B" stroke-width="2" stroke-linecap="round" stroke-linejoin="round"/>
<path d="M73.2504 23.0298C73.2504 23.0298 72.8053 27.0168 70.9124 29.6993C68.9306 32.5095 65.7952 34.6733 65.7952 34.6733" stroke="#E0001B" stroke-width="2" stroke-linecap="round" stroke-linejoin="round"/>
<path d="M62.3462 23.8543L68.1912 14.5604C68.4118 14.212 68.7486 14.2236 68.9421 14.5875L70.6492 17.7887C70.6879 17.8622 70.7072 17.99 70.6918 18.0712L69.6737 23.684C69.6621 23.7459 69.6195 23.8388 69.577 23.8891L66.7009 27.2568" stroke="#E0001B" stroke-width="2" stroke-linecap="round" stroke-linejoin="round"/>
<path d="M46.6108 52.4717H68.7676" stroke="#E0001B" stroke-width="2" stroke-linecap="round" stroke-linejoin="round"/>
<path d="M79.5209 96.1348L68.7212 101.693" stroke="#E0001B" stroke-width="2" stroke-linecap="round" stroke-linejoin="round"/>
<path d="M37.5532 96.1348L48.3529 101.693" stroke="#E0001B" stroke-width="2" stroke-linecap="round" stroke-linejoin="round"/>
</svg>
