<svg width="125" height="124" viewBox="0 0 125 124" fill="none" xmlns="http://www.w3.org/2000/svg">
<path d="M109.207 27.6249V34.0501C109.207 39.1867 105.002 43.3914 99.8655 43.3914C94.7288 43.3914 90.5241 39.1867 90.5241 34.0501V30.8754V31.2499V27.9459C90.5241 22.8093 86.3194 18.6046 81.1828 18.6046C76.0462 18.6046 71.8415 22.8093 71.8415 27.9459V34.0456C71.8415 39.1822 67.6367 43.387 62.5001 43.387H62.1791C57.2208 43.387 53.1588 39.3294 53.1588 34.3667M53.1588 34.3667V31.4952M53.1588 34.3667V27.9414C53.1588 22.8048 48.9541 18.6001 43.8175 18.6001C38.6808 18.6001 34.4761 22.8048 34.4761 27.9414V34.0412C34.4761 39.1778 30.2714 43.3825 25.1348 43.3825C19.9982 43.3825 15.7935 39.1778 15.7935 34.0412V30.8664" stroke="#1D1D1B" stroke-width="2" stroke-linecap="round" stroke-linejoin="round"/>
<path d="M109.207 59.0377V65.4629C109.207 70.5995 105.002 74.8043 99.8655 74.8043C94.7288 74.8043 90.5241 70.5995 90.5241 65.4629V62.2882V62.6628V59.3587C90.5241 54.2221 86.3194 50.0174 81.1828 50.0174C76.0462 50.0174 71.8415 54.2221 71.8415 59.3587V65.4585C71.8415 70.5951 67.6367 74.7998 62.5001 74.7998H62.1791C57.2208 74.7998 53.1588 70.7422 53.1588 65.7795M53.1588 65.7795V62.908M53.1588 65.7795V59.3543C53.1588 54.2177 48.9541 50.0129 43.8175 50.0129C38.6808 50.0129 34.4761 54.2177 34.4761 59.3543V65.454C34.4761 70.5906 30.2714 74.7953 25.1348 74.7953C19.9982 74.7953 15.7935 70.5906 15.7935 65.454V62.2793" stroke="#1D1D1B" stroke-width="2" stroke-linecap="round" stroke-linejoin="round"/>
<path d="M109.207 89.4784V95.9036C109.207 101.04 105.002 105.245 99.8655 105.245C94.7288 105.245 90.5241 101.04 90.5241 95.9036V92.7289V93.1034V89.7994C90.5241 84.6628 86.3194 80.4581 81.1828 80.4581C76.0462 80.4581 71.8415 84.6628 71.8415 89.7994V95.8991C71.8415 101.036 67.6367 105.24 62.5001 105.24H62.1791C57.2208 105.24 53.1588 101.183 53.1588 96.2202M53.1588 96.2202V93.3487M53.1588 96.2202V89.7949C53.1588 84.6583 48.9541 80.4536 43.8175 80.4536C38.6808 80.4536 34.4761 84.6583 34.4761 89.7949V95.8947C34.4761 101.031 30.2714 105.236 25.1348 105.236C19.9982 105.236 15.7935 101.031 15.7935 95.8947V92.72" stroke="#1D1D1B" stroke-width="2" stroke-linecap="round" stroke-linejoin="round"/>
</svg>
