<svg width="117" height="116" viewBox="0 0 117 116" fill="none" xmlns="http://www.w3.org/2000/svg">
<path d="M101.033 18.5596H7.07333V87.3862H101.033V18.5596Z" stroke="#E0001B" stroke-width="2" stroke-miterlimit="10" stroke-linejoin="round"/>
<path d="M101.099 39.4395H110.313V97.0528H16.3533V90.6965V87.2227" stroke="#E0001B" stroke-width="2" stroke-miterlimit="10" stroke-linejoin="round"/>
<path d="M23.5165 31.2429C23.8592 31.6354 24.3124 31.9781 24.9868 31.9781C25.9301 31.9781 26.5178 31.3405 26.5178 30.3842V24.748H27.7431V30.3972C27.7431 32.2101 26.5916 33.0689 25.0714 33.0689C24.2126 33.0689 23.4905 32.8108 22.9267 32.1754L23.5143 31.2451L23.5165 31.2429Z" fill="#E0001B"/>
<path d="M36.3934 32.9214L35.732 31.2299H31.7245L31.063 32.9214H29.7142L32.9606 24.748H34.4916L37.7379 32.9214H36.3891H36.3934ZM33.7217 25.815L32.0801 30.1413H35.3763L33.7217 25.815Z" fill="#E0001B"/>
<path d="M45.803 32.9214L41.2815 26.6477V32.9214H40.0563V24.748H41.3184L45.7662 30.8743V24.748H46.9914V32.9214H45.803Z" fill="#E0001B"/>
<path d="M50.1401 24.7483H51.3784V29.6861C51.3784 31.0827 52.1504 31.9783 53.5838 31.9783C55.0172 31.9783 55.7762 31.0848 55.7762 29.6861V24.7483H57.0145V29.71C57.0145 31.7441 55.876 33.0669 53.5838 33.0669C51.2916 33.0669 50.1401 31.7311 50.1401 29.7208V24.7461V24.7483Z" fill="#E0001B"/>
<path d="M65.6648 32.9214L65.0034 31.2299H60.9959L60.3345 32.9214H58.9856L62.232 24.748H63.763L67.0093 32.9214H65.6605H65.6648ZM62.9931 25.815L61.3515 30.1413H64.6477L62.9931 25.815Z" fill="#E0001B"/>
<path d="M74.0313 32.9214L72.0839 29.7726H70.5529V32.9214H69.3276V24.748H72.7713C74.3283 24.748 75.3931 25.7521 75.3931 27.2593C75.3931 28.7664 74.3999 29.5146 73.359 29.649L75.4538 32.9214H74.0334H74.0313ZM72.6108 25.8258H70.5529V28.6927H72.6108C73.4934 28.6927 74.131 28.1158 74.131 27.2593C74.131 26.4027 73.4934 25.8258 72.6108 25.8258Z" fill="#E0001B"/>
<path d="M80.3917 32.9222V29.5045L77.193 24.751H78.6026L81.0032 28.4029L83.3799 24.751H84.8004L81.6147 29.5045V32.9222H80.3895H80.3917Z" fill="#E0001B"/>
<line x1="45.58" y1="41.7598" x2="45.58" y2="77.3331" stroke="#E0001B" stroke-width="2" stroke-linejoin="round"/>
<line x1="68.78" y1="41.7598" x2="68.78" y2="77.3331" stroke="#E0001B" stroke-width="2" stroke-linejoin="round"/>
<line x1="57.18" y1="41.7598" x2="57.18" y2="77.3331" stroke="#E0001B" stroke-width="2" stroke-linejoin="round"/>
<path d="M91.7533 53.7463L21.7667 53.7463L21.7667 76.9463L79.7667 76.9463L79.7667 41.7596" stroke="#E0001B" stroke-width="2" stroke-linejoin="round"/>
<path d="M21.38 65.3463L91.3667 65.3463V42.1463L33.3667 42.1463L33.3667 77.333" stroke="#E0001B" stroke-width="2" stroke-linejoin="round"/>
</svg>
