<svg width="117" height="116" viewBox="0 0 117 116" fill="none" xmlns="http://www.w3.org/2000/svg">
<path d="M102.193 62.8467H15.229C14.849 62.8467 14.6962 63.1131 14.8921 63.4383L31.6722 91.5213C31.7349 91.6271 31.8877 91.7133 32.0091 91.7133H102.193" stroke="#E0001B" stroke-width="2" stroke-linecap="round" stroke-linejoin="round"/>
<path d="M36.9612 57.4164H60.1234C60.241 57.4164 60.3938 57.3342 60.4565 57.2323L68.7544 44.0096C68.9621 43.6805 68.8132 43.4102 68.4214 43.4102H46.8733" stroke="#E0001B" stroke-width="2" stroke-linecap="round" stroke-linejoin="round"/>
<path d="M97.817 43.4102H80.0182C79.8019 43.4102 79.6265 43.5856 79.6265 43.8019V57.0246C79.6265 57.241 79.8019 57.4164 80.0182 57.4164H97.817C98.0334 57.4164 98.2088 57.241 98.2088 57.0246V43.8019C98.2088 43.5856 98.0334 43.4102 97.817 43.4102Z" stroke="#E0001B" stroke-width="2" stroke-linecap="round" stroke-linejoin="round"/>
<path d="M102.193 37.1219H78.1729C77.9535 37.1219 77.7772 36.9456 77.7812 36.7262L77.9144 24.3693C77.9144 24.1499 77.742 23.9736 77.5226 23.9736H60.8287C60.719 23.9736 60.574 24.0481 60.5074 24.1382L46.8694 43.41L34.3284 61.1304L33.5723 62.2313C33.3411 62.5683 33.4861 62.8464 33.8935 62.8464H102.189" stroke="#E0001B" stroke-width="2" stroke-linecap="round" stroke-linejoin="round"/>
</svg>
