<svg width="117" height="116" viewBox="0 0 117 116" fill="none" xmlns="http://www.w3.org/2000/svg">
<path d="M47.814 95.8701V98.8529C47.814 100.421 46.5962 101.693 45.0932 101.693H40.3994C38.8965 101.693 37.6787 100.421 37.6787 98.8529V95.8701" stroke="#E0001B" stroke-width="2" stroke-linecap="round" stroke-linejoin="round"/>
<path d="M79.5878 95.8701V98.8529C79.5878 100.421 78.37 101.693 76.867 101.693H72.1732C70.6703 101.693 69.4525 100.421 69.4525 98.8529V95.8701" stroke="#E0001B" stroke-width="2" stroke-linecap="round" stroke-linejoin="round"/>
<path d="M29.7671 47.9111H25.6321C25.4192 47.9111 25.2467 48.0837 25.2467 48.2965V60.4935C25.2467 60.7063 25.4192 60.8789 25.6321 60.8789H29.7671C29.9799 60.8789 30.1525 60.7063 30.1525 60.4935V48.2965C30.1525 48.0837 29.9799 47.9111 29.7671 47.9111Z" stroke="#E0001B" stroke-width="2" stroke-linecap="round" stroke-linejoin="round"/>
<path d="M30.1525 47.9111H33.1892" stroke="#E0001B" stroke-width="2" stroke-linecap="round" stroke-linejoin="round"/>
<path d="M91.6306 47.9111H87.4956C87.2828 47.9111 87.1102 48.0837 87.1102 48.2965V60.4935C87.1102 60.7063 87.2828 60.8789 87.4956 60.8789H91.6306C91.8435 60.8789 92.016 60.7063 92.016 60.4935V48.2965C92.016 48.0837 91.8435 47.9111 91.6306 47.9111Z" stroke="#E0001B" stroke-width="2" stroke-linecap="round" stroke-linejoin="round"/>
<path d="M87.1102 47.9111H84.0735" stroke="#E0001B" stroke-width="2" stroke-linecap="round" stroke-linejoin="round"/>
<path d="M83.6843 14.3066H33.5746C33.3617 14.3066 33.1892 14.4792 33.1892 14.692V95.485C33.1892 95.6978 33.3617 95.8704 33.5746 95.8704H83.6843C83.8972 95.8704 84.0697 95.6978 84.0697 95.485V14.692C84.0697 14.4792 83.8972 14.3066 83.6843 14.3066Z" stroke="#E0001B" stroke-width="2" stroke-linecap="round" stroke-linejoin="round"/>
<path d="M33.1892 20.5801H84.0736" stroke="#E0001B" stroke-width="2" stroke-linecap="round" stroke-linejoin="round"/>
<path d="M33.1892 35.7568H84.0736" stroke="#E0001B" stroke-width="2" stroke-linecap="round" stroke-linejoin="round"/>
<path d="M33.1892 51.2871H84.0736" stroke="#E0001B" stroke-width="2" stroke-linecap="round" stroke-linejoin="round"/>
<path d="M33.1892 76.1318H84.0736" stroke="#E0001B" stroke-width="2" stroke-linecap="round" stroke-linejoin="round"/>
<path d="M38.754 88.9491C40.3183 88.9491 41.5865 87.681 41.5865 86.1167C41.5865 84.5523 40.3183 83.2842 38.754 83.2842C37.1897 83.2842 35.9215 84.5523 35.9215 86.1167C35.9215 87.681 37.1897 88.9491 38.754 88.9491Z" stroke="#E0001B" stroke-width="2" stroke-linecap="round" stroke-linejoin="round"/>
<path d="M78.5087 88.9491C80.0731 88.9491 81.3412 87.681 81.3412 86.1167C81.3412 84.5523 80.0731 83.2842 78.5087 83.2842C76.9444 83.2842 75.6763 84.5523 75.6763 86.1167C75.6763 87.681 76.9444 88.9491 78.5087 88.9491Z" stroke="#E0001B" stroke-width="2" stroke-linecap="round" stroke-linejoin="round"/>
<path d="M66.9786 87.8545H50.2843C50.0715 87.8545 49.8989 88.027 49.8989 88.2399V91.4038C49.8989 91.6166 50.0715 91.7891 50.2843 91.7891H66.9786C67.1914 91.7891 67.3639 91.6166 67.3639 91.4038V88.2399C67.3639 88.027 67.1914 87.8545 66.9786 87.8545Z" stroke="#E0001B" stroke-width="2" stroke-linecap="round" stroke-linejoin="round"/>
<path d="M75.819 39.498H41.4477C41.2349 39.498 41.0624 39.6706 41.0624 39.8834V47.1631C41.0624 47.3759 41.2349 47.5484 41.4477 47.5484H75.819C76.0318 47.5484 76.2043 47.3759 76.2043 47.1631V39.8834C76.2043 39.6706 76.0318 39.498 75.819 39.498Z" stroke="#E0001B" stroke-width="2" stroke-linecap="round" stroke-linejoin="round"/>
</svg>
