<svg width="117" height="116" viewBox="0 0 117 116" fill="none" xmlns="http://www.w3.org/2000/svg">
<path d="M103.984 60.0838V1.54688L40.1197 19.4195V89.0838" stroke="#E0001B" stroke-width="2" stroke-miterlimit="10" stroke-linecap="round" stroke-linejoin="round"/>
<path d="M31.1885 106.365C39.0273 102.055 43.0744 94.3643 40.2278 89.1869C37.3812 84.0095 28.719 83.3063 20.8801 87.6162C13.0413 91.9261 8.99427 99.617 11.8408 104.794C14.6874 109.972 23.3497 110.675 31.1885 106.365Z" stroke="#E0001B" stroke-width="2" stroke-miterlimit="10" stroke-linecap="round"/>
<path d="M95.8883 78.7968C103.727 74.4869 107.774 66.7959 104.928 61.6186C102.081 56.4412 93.4188 55.7379 85.5799 60.0478C77.7411 64.3577 73.6941 72.0487 76.5407 77.226C79.3872 82.4034 88.0495 83.1066 95.8883 78.7968Z" stroke="#E0001B" stroke-width="2" stroke-miterlimit="10" stroke-linecap="round"/>
</svg>
