<svg width="125" height="124" viewBox="0 0 125 124" fill="none" xmlns="http://www.w3.org/2000/svg">
<path d="M20.0499 104.06C18.1294 102.209 17.9357 98.4434 20.0875 96.1248C37.6894 77.1511 73.0869 39.3758 90.6889 20.4021C95.7134 14.9849 103.153 13.6454 107 17.4972C110.851 21.3489 109.523 28.7996 104.095 33.808L28.372 104.409C26.0481 106.556 22.5245 106.443 20.0499 104.06Z" stroke="#1D1D1B" stroke-width="2" stroke-linecap="round" stroke-linejoin="round"/>
<path d="M25.8653 89.9276L15.9508 80.0131C15.741 79.8033 15.741 79.459 15.9508 79.2546L17.9412 77.2641C18.0488 77.1565 18.2586 77.092 18.4039 77.1135L35.3118 79.7979" stroke="#1D1D1B" stroke-width="2" stroke-linecap="round" stroke-linejoin="round"/>
<path d="M34.6177 98.5888L44.5483 108.519C44.7689 108.74 45.1186 108.729 45.3284 108.498L47.2112 106.416C47.3081 106.308 47.3672 106.109 47.3457 105.97L44.6828 89.196" stroke="#1D1D1B" stroke-width="2" stroke-linecap="round" stroke-linejoin="round"/>
<path d="M56.7438 56.8111L30.045 30.1177C29.8352 29.9079 29.8352 29.569 30.045 29.3592L33.3696 26.0023C33.5095 25.8624 33.7731 25.8086 33.9506 25.884L71.4677 41.0167" stroke="#1D1D1B" stroke-width="2" stroke-linecap="round" stroke-linejoin="round"/>
<path d="M67.7559 67.6885L94.1103 94.0483C94.3201 94.2581 94.6644 94.2581 94.8742 94.0483L98.1934 90.6914C98.3279 90.5516 98.3817 90.2934 98.3117 90.1105L83.3889 53.1206" stroke="#1D1D1B" stroke-width="2" stroke-linecap="round" stroke-linejoin="round"/>
</svg>
