<svg width="125" height="124" viewBox="0 0 125 124" fill="none" xmlns="http://www.w3.org/2000/svg">
<path d="M31.0133 81.76C31.0133 84.9442 28.4313 87.8108 25.2471 87.8108C22.0629 87.8108 19.481 84.9442 19.481 81.76" stroke="#1D1D1B" stroke-width="2" stroke-linecap="round" stroke-linejoin="round"/>
<path d="M90.9102 81.76C90.9102 84.9442 88.3283 87.8108 85.1441 87.8108C81.9599 87.8108 79.3779 84.9442 79.3779 81.76" stroke="#1D1D1B" stroke-width="2" stroke-linecap="round" stroke-linejoin="round"/>
<path d="M105.821 58.8935V78.5141C105.821 78.7409 105.635 78.9265 105.408 78.9265H95.5091C95.2823 78.9265 95.0967 78.7409 95.0967 78.5141V63.018C95.0967 60.7413 97.0723 58.8811 99.3532 58.8811" stroke="#1D1D1B" stroke-width="2" stroke-linecap="round" stroke-linejoin="round"/>
<path d="M15.9419 53.5852H109.207" stroke="#1D1D1B" stroke-width="2" stroke-linecap="round" stroke-linejoin="round"/>
<path d="M109.207 58.877H15.9463" stroke="#1D1D1B" stroke-width="2" stroke-linecap="round" stroke-linejoin="round"/>
<path d="M27.8003 71.1682H95.0226" stroke="#1D1D1B" stroke-width="2" stroke-linecap="round" stroke-linejoin="round"/>
<path d="M15.9297 40.9146H104.658" stroke="#1D1D1B" stroke-width="2" stroke-linecap="round" stroke-linejoin="round"/>
<path d="M33.9004 40.9146V53.5852" stroke="#1D1D1B" stroke-width="2" stroke-linecap="round" stroke-linejoin="round"/>
<path d="M69.479 40.9146V53.5852" stroke="#1D1D1B" stroke-width="2" stroke-linecap="round" stroke-linejoin="round"/>
<path d="M51.6895 40.9146V53.5852" stroke="#1D1D1B" stroke-width="2" stroke-linecap="round" stroke-linejoin="round"/>
<path d="M87.2725 40.9146V53.5852" stroke="#1D1D1B" stroke-width="2" stroke-linecap="round" stroke-linejoin="round"/>
<path d="M33.9004 58.877V71.1682" stroke="#1D1D1B" stroke-width="2" stroke-linecap="round" stroke-linejoin="round"/>
<path d="M69.479 58.877V71.1682" stroke="#1D1D1B" stroke-width="2" stroke-linecap="round" stroke-linejoin="round"/>
<path d="M51.6895 58.877V71.1682" stroke="#1D1D1B" stroke-width="2" stroke-linecap="round" stroke-linejoin="round"/>
<path d="M87.2725 58.877V71.1682" stroke="#1D1D1B" stroke-width="2" stroke-linecap="round" stroke-linejoin="round"/>
<path d="M27.7052 71.1682H16.2059C15.9791 71.1682 15.7935 71.3538 15.7935 71.5806V81.3435C15.7935 81.5704 15.9791 81.756 16.2059 81.756H108.794C109.021 81.756 109.207 81.5704 109.207 81.3435V36.7857C109.207 36.5589 109.021 36.3733 108.794 36.3733H20.0541C17.7774 36.3733 15.9296 38.2211 15.9296 40.4979L15.9461 60.5062C15.9461 61.7972 16.9937 62.8489 18.2888 62.8489H27.2928C27.5196 62.8489 27.7052 63.0345 27.7052 63.2614V81.7601" stroke="#1D1D1B" stroke-width="2" stroke-linecap="round" stroke-linejoin="round"/>
<path d="M17.9673 62.8284V71.1683" stroke="#1D1D1B" stroke-width="2" stroke-linecap="round" stroke-linejoin="round"/>
</svg>
