<svg width="133" height="133" viewBox="0 0 133 133" fill="none" xmlns="http://www.w3.org/2000/svg">
<path d="M113.346 82.4048C113.346 95.7691 103.013 107.504 86.675 112.769C83.0972 113.922 80.0198 114.725 80.0198 114.725L54.7751 114.7L45.768 112.945C28.8048 109.66 18.5217 95.8944 18.5217 82.3797C18.5217 70.8709 26.603 60.691 38.9877 54.5981C46.6437 50.812 86.2496 51.0627 94.1308 55.1999C105.765 61.3931 113.346 71.2721 113.346 82.4048Z" stroke="#E0001B" stroke-width="2" stroke-miterlimit="10"/>
<path d="M94.6517 55.4167C98.8336 52.4448 104.314 50.478 109.823 51.0523C121.793 52.301 130.508 63.0148 129.231 74.9524C128.154 85.2166 120.478 93.2313 110.612 94.43" stroke="#E0001B" stroke-width="2" stroke-miterlimit="10"/>
<path d="M74.6756 44.6762C75.4188 40.0969 72.309 35.7821 67.7296 35.039C63.1503 34.2958 58.8355 37.4056 58.0923 41.9849C57.3492 46.5642 60.459 50.879 65.0383 51.6222C69.6176 52.3654 73.9324 49.2556 74.6756 44.6762Z" stroke="#E0001B" stroke-width="2" stroke-miterlimit="10"/>
<path d="M19.7283 74.7017L3.99001 58.2014L7.48402 53.397L32.0678 58.9271" stroke="#E0001B" stroke-width="2" stroke-miterlimit="10" stroke-linejoin="round"/>
<path d="M6.64944 18.1766C6.64944 18.1766 11.7491 22.6846 6.64944 27.6684C2.16485 32.0512 6.64944 37.1602 6.64944 37.1602L5.98315 36.3838C5.98315 36.3838 11.0828 40.8918 5.98315 45.8756C1.49857 50.2583 5.98315 55.3674 5.98315 55.3674" stroke="#E0001B" stroke-width="2" stroke-miterlimit="10" stroke-linecap="round"/>
</svg>
