<svg width="117" height="116" viewBox="0 0 117 116" fill="none" xmlns="http://www.w3.org/2000/svg">
<path d="M75.2407 28.0237C84.1581 26.9858 93.4472 29.8925 100.289 36.734C112.175 48.6204 112.175 67.8923 100.289 79.7788" stroke="#E0001B" stroke-width="1.5" stroke-miterlimit="10" stroke-linejoin="round"/>
<path d="M25.2073 68.5811L25.2297 45.4967C25.2297 30.6062 37.3008 18.5376 52.1889 18.5376C52.5432 18.5376 52.8975 18.5451 53.2493 18.5576" stroke="#E0001B" stroke-width="1.5" stroke-miterlimit="10" stroke-linejoin="round"/>
<path d="M25.1998 74.417L25.1923 82.6757C25.1923 84.9262 23.3535 86.7526 21.0855 86.7526C18.8175 86.7526 16.9786 84.9262 16.9786 82.6757H7.84668C7.84668 89.9313 13.7749 95.8147 21.0855 95.8147C28.396 95.8147 34.3243 89.9313 34.3243 82.6757L34.1771 75.5523V75.5248" stroke="#E0001B" stroke-width="1.5" stroke-miterlimit="10" stroke-linejoin="round"/>
<path d="M53.2493 18.5576C54.9384 18.0561 56.7249 17.7866 58.5762 17.7866C65.8543 17.7866 72.1593 21.9484 75.2407 28.0239" stroke="#E0001B" stroke-width="1.5" stroke-miterlimit="10" stroke-linejoin="round"/>
<path d="M57.9718 54.3783C57.5579 54.3635 57.2103 54.6871 57.1955 55.101C57.1808 55.515 57.5044 55.8625 57.9183 55.8773L57.9718 54.3783ZM74.5721 28.3635C75.8073 30.7955 76.5019 33.5462 76.5019 36.4622H78.0019C78.0019 33.3053 77.2493 30.3223 75.9095 27.6843L74.5721 28.3635ZM76.5019 36.4622C76.5019 46.3626 68.4767 54.3878 58.5763 54.3878V55.8878C69.3051 55.8878 78.0019 47.191 78.0019 36.4622H76.5019ZM58.5763 54.3878C58.3699 54.3878 58.1697 54.3853 57.9718 54.3783L57.9183 55.8773C58.1396 55.8852 58.3586 55.8878 58.5763 55.8878V54.3878Z" fill="#E0001B"/>
<path d="M40.9736 30.2046C42.9622 24.6156 47.5331 20.2543 53.2493 18.5576" stroke="#E0001B" stroke-width="1.5" stroke-miterlimit="10" stroke-linecap="round" stroke-linejoin="round"/>
<path d="M61.5803 80.1133V98.2499H44.04V66.0957H50.6145C52.4534 71.8343 56.418 77.2041 61.5803 80.1133Z" stroke="#E0001B" stroke-width="1.5" stroke-miterlimit="10" stroke-linejoin="round"/>
<path d="M100.399 57.6997V98.2495H82.8608V81.1159C91.1644 77.4207 96.9529 69.0971 96.9529 59.4213" stroke="#E0001B" stroke-width="1.5" stroke-miterlimit="10" stroke-linecap="round" stroke-linejoin="round"/>
<path d="M82.8607 81.1156C79.914 82.428 76.6505 83.1566 73.2173 83.1566C68.9881 83.1566 65.0185 82.0513 61.5803 80.1126C56.418 77.2034 52.8725 72.3833 50.8515 66.7694C50.7892 66.5797 50.6719 66.2878 50.6145 66.0957" stroke="#E0001B" stroke-width="1.5" stroke-miterlimit="10" stroke-linejoin="round"/>
<path d="M25.1998 74.4171C21.0256 72.2265 18.1787 67.8501 18.1787 62.8101C18.1787 61.0012 18.5455 59.2771 19.2092 57.7102L20.2696 55.27C19.8853 56.303 20.1174 65.0656 25.2073 68.5812" stroke="#E0001B" stroke-width="1.5" stroke-miterlimit="10" stroke-linejoin="round"/>
<path d="M43.9903 65.8364C43.0546 70.3949 38.9702 74.367 34.1772 75.5522C33.2341 75.7867 32.261 75.9115 31.2804 75.9115C29.0848 75.9115 27.0164 75.3726 25.2 74.4169" stroke="#E0001B" stroke-width="1.5" stroke-miterlimit="10" stroke-linejoin="round"/>
<path d="M25.2073 68.5809C26.2876 69.3319 27.5876 69.8434 29.1495 69.9931C35.5019 70.6019 40.7016 64.8208 40.7016 58.4409" stroke="#E0001B" stroke-width="1.5" stroke-miterlimit="10" stroke-linecap="round" stroke-linejoin="round"/>
</svg>
