<svg xmlns="http://www.w3.org/2000/svg" id="svg3688" width="726.6" height="222.7"><style>.st0{fill:#353d42}</style><path class="st0" d="M0 118.7V2.3h27.4v92.1h44.7v24.3zm147.3 2.2c-17.6 0-32.3-5.8-44.2-17.5-11.8-11.6-17.8-26-17.8-43-.1-17 5.8-31.3 17.7-42.9C114.9 5.9 129.6 0 147.2 0s32.4 5.8 44.3 17.4c11.9 11.6 17.8 25.9 17.8 43-.1 17.2-6 31.5-17.8 43.1-11.8 11.6-26.6 17.4-44.2 17.4zm0-24.6c9.9 0 18.1-3.4 24.8-10.3 6.6-6.8 9.9-15.4 9.9-25.7 0-10.2-3.3-18.7-9.9-25.6-6.6-6.8-14.9-10.2-24.8-10.2s-18.1 3.4-24.7 10.3c-6.6 6.9-9.9 15.4-9.9 25.5 0 10.2 3.3 18.7 9.9 25.6 6.6 7 14.8 10.4 24.7 10.4zM307 118.7l-51.1-72.1v72.1h-27.3V2.3h27.5L308 75.2V2.3h27.4v116.4zm51.4 0V2.3h37.5c19.8 0 35.6 5.2 47.4 15.5 11.8 10.3 17.7 24.3 17.7 42 0 18.7-5.9 33.3-17.7 43.5-11.8 10.3-28.2 15.4-49.1 15.4zm27.4-93.8V96h7.5c12.7 0 22.6-3.1 29.7-9.4 7.1-6.2 10.7-14.9 10.7-26.1-.1-11.4-3.6-20.2-10.7-26.4-7.1-6.2-17-9.2-29.7-9.2zm152.7 96c-17.6 0-32.3-5.8-44.2-17.5-11.8-11.6-17.8-26-17.8-43-.1-17 5.8-31.3 17.7-42.9C506.1 5.9 520.8 0 538.4 0s32.4 5.8 44.3 17.4c11.9 11.6 17.9 25.9 17.9 43-.1 17.2-6 31.5-17.9 43.1-11.8 11.6-26.6 17.4-44.2 17.4zm0-24.6c9.9 0 18.1-3.4 24.8-10.3 6.6-6.8 9.9-15.4 9.9-25.7 0-10.2-3.3-18.7-9.9-25.6-6.6-6.8-14.9-10.2-24.8-10.2s-18.1 3.4-24.7 10.3c-6.6 6.9-9.9 15.4-9.9 25.5 0 10.2 3.3 18.7 9.9 25.6 6.6 7 14.8 10.4 24.7 10.4zm159.7 22.4l-51.1-72.1v72.1h-27.3V2.3h27.5l51.9 72.9V2.3h27.4v116.4z" fill="#353D42"/><path class="st0" d="M421.5 452.2l-3.3-3.7c-3.9 3.1-8.3 4.6-13.3 4.6-4.6 0-8.4-1.3-11.3-3.8-3-2.6-4.5-5.9-4.5-10.1 0-2.8.8-5.4 2.4-7.6 1.6-2.3 3.9-4.1 6.8-5.5-3.3-3.5-5-7-5-10.5 0-3.8 1.3-6.9 4.1-9.2 2.7-2.3 6.1-3.4 10.2-3.4 4 0 7.4 1.2 10.1 3.5 2.7 2.3 4.1 5.3 4.1 9 0 5.4-3.1 9.5-9.1 12.4l6.3 6.7c1.6-2.1 2.8-4.4 3.6-7h10.9c-1.5 5.5-4.1 10.2-7.8 14.2l9.7 10.4zm-17.4-19.7c-2.9 1.5-4.3 3.5-4.3 5.9 0 1.5.6 2.8 1.7 3.7 1.1 1 2.5 1.5 4.1 1.5 2.3 0 4.5-.8 6.4-2.3zm3.1-10.7c3.5-1.8 5.3-3.9 5.3-6.2 0-1.2-.4-2.2-1.3-3-.9-.8-2-1.2-3.3-1.2-1.4 0-2.5.4-3.4 1.1-.9.7-1.3 1.7-1.3 2.8 0 .9.3 1.8.8 2.7.5 1 1.6 2.3 3.2 3.8zm56 14.6v15.8h-11.4v-48.4H468c5.8 0 10.4 1.5 13.6 4.4 3.2 2.9 4.9 6.8 4.9 11.8 0 5-1.7 9-5.2 12-3.4 2.9-8 4.4-13.8 4.4zm0-23.3v14h3.6c2.7 0 4.8-.6 6.2-1.8 1.4-1.2 2.1-2.9 2.1-5.2 0-2.3-.7-4-2.1-5.2-1.4-1.2-3.5-1.8-6.2-1.8zm63.4 39.1l-2.9-8.8h-17.2l-2.8 8.8h-12.3l17.8-48.4h11.5l18.4 48.4zM515 417.1l-5.4 16.5h10.9zm56.3 35.1l-12-18.3h-2.2v18.3h-11.4v-48.4h16.5c5.4 0 9.6 1.3 12.6 3.9 3 2.6 4.5 6.2 4.5 10.8 0 3-.8 5.7-2.3 7.9-1.5 2.2-3.7 3.9-6.6 5.1l13.8 20.7zm-14.1-39.3v11.4h3.9c2.1 0 3.7-.5 5-1.7 1.2-1.1 1.9-2.5 1.9-4.2 0-1.6-.6-2.9-1.7-3.9s-2.7-1.6-4.7-1.6zm55.2 1v38.3H601v-38.3h-13v-10.1h37.5v10.1zm52.7 38.3l-21.2-29.9v29.9h-11.4v-48.4h11.4l21.6 30.3v-30.3h11.4v48.4zm21.4 0v-48.4h30.2v9.7h-18.9v8.3h14.9v9.8h-14.9v10.5h20.4v10.1zm64.7 0l-12-18.3H737v18.3h-11.4v-48.4h16.5c5.4 0 9.6 1.3 12.6 3.9 3 2.6 4.5 6.2 4.5 10.8 0 3-.8 5.7-2.3 7.9-1.5 2.2-3.7 3.9-6.6 5.1l13.8 20.7zM737 412.9v11.4h3.9c2.1 0 3.7-.5 5-1.7 1.2-1.1 1.9-2.5 1.9-4.2 0-1.6-.6-2.9-1.7-3.9s-2.7-1.6-4.7-1.6zm31.5 29.7l8.5-5.1c1.7 3.9 4.4 5.9 8.1 5.9 2 0 3.5-.4 4.7-1.3 1.2-.9 1.7-2 1.8-3.5 0-1.2-.4-2.3-1.3-3.2-.9-.9-3.4-2.3-7.4-4.1-4.7-2.1-7.9-4.2-9.6-6.4-1.7-2.2-2.5-4.9-2.5-8.1 0-3.9 1.5-7.2 4.5-9.8 3-2.7 6.8-4 11.5-4 6.7 0 11.6 2.6 14.6 7.9l-7.9 5.1c-1.5-2.5-3.7-3.8-6.7-3.8-1.5 0-2.7.4-3.7 1.2-.9.8-1.4 1.7-1.4 2.9s.5 2.2 1.5 3.1c1 .8 3.1 2 6.4 3.6 4.9 2.3 8.4 4.6 10.4 6.9 2 2.3 3 5.2 3 8.7 0 4.3-1.7 7.8-5.2 10.6-3.4 2.8-7.7 4.2-12.8 4.2-7.4-.3-12.9-3.8-16.5-10.8z" fill="#353D42" transform="translate(-232.8 -230.7)"/></svg>