<svg width="125" height="124" viewBox="0 0 125 124" fill="none" xmlns="http://www.w3.org/2000/svg">
<path d="M110.481 56.4343H14.8663C9.81427 56.4343 5.71875 60.5601 5.71875 65.6494V77.7676C5.71875 82.857 9.81427 86.9828 14.8663 86.9828H110.481C115.533 86.9828 119.628 82.857 119.628 77.7676V65.6494C119.628 60.5601 115.533 56.4343 110.481 56.4343Z" stroke="#282828" stroke-width="2" stroke-miterlimit="10"/>
<path d="M14.2622 56.434V31.2625C14.2622 28.1635 16.8008 25.6267 19.9019 25.6267H106.222C109.323 25.6267 111.862 28.1635 111.862 31.2625V56.434" stroke="#282828" stroke-width="2" stroke-miterlimit="10"/>
<path d="M56.9578 56.4337H23.8613C22.9965 56.4337 22.2876 55.7378 22.2876 54.8837V41.3637C22.2876 40.512 22.5583 39.7257 23.4232 39.7257C23.4232 39.7257 28.6651 37.7171 40.4084 37.7962C54.1613 37.8866 57.5382 39.7257 57.5382 39.7257C58.0566 39.8116 58.5315 40.512 58.5315 41.3637V54.8837C58.5315 55.7355 57.8249 56.4337 56.9578 56.4337Z" stroke="#282828" stroke-width="2" stroke-miterlimit="10"/>
<path d="M102.006 56.4337H68.9072C68.0424 56.4337 67.3335 55.7363 67.3335 54.8805V41.3326C67.3335 40.4791 67.5285 39.6437 68.3934 39.6437C68.3934 39.6437 72.6213 37.7939 85.4566 37.7939C99.9551 37.7939 102.68 39.5576 102.68 39.5576C103.545 39.5576 103.577 40.4791 103.577 41.3326V54.8805C103.577 55.7341 102.871 56.4337 102.004 56.4337H102.006Z" stroke="#282828" stroke-width="2" stroke-miterlimit="10"/>
<path d="M15.0386 86.9827V98.3736" stroke="#282828" stroke-width="2" stroke-miterlimit="10"/>
<path d="M111.603 86.9827V98.3736" stroke="#282828" stroke-width="2" stroke-miterlimit="10"/>
<path d="M5.45996 78.6978H119.628" stroke="#282828" stroke-width="2" stroke-miterlimit="10"/>
</svg>
