<svg width="125" height="125" viewBox="0 0 125 125" fill="none" xmlns="http://www.w3.org/2000/svg">
<path d="M95.4095 113.743V76.8358" stroke="#E0001B" stroke-width="2" stroke-miterlimit="10"/>
<path d="M116.047 18.9111L119.283 53.0399C119.283 66.2247 108.594 76.9135 95.4095 76.9135C82.2247 76.9135 71.5359 66.2247 71.5359 53.0399L74.772 18.9111H116.047Z" stroke="#E0001B" stroke-width="2" stroke-miterlimit="10" stroke-linejoin="round"/>
<path d="M72.8228 39.4731C72.8228 39.4731 84.4992 42.3439 95.4095 39.4731C110.079 35.6148 118.125 39.4731 118.125 39.4731" stroke="#E0001B" stroke-width="2" stroke-miterlimit="10"/>
<path d="M12.8818 113.75H113.94" stroke="#E0001B" stroke-width="2" stroke-miterlimit="10" stroke-linecap="round"/>
<path d="M36.2501 44.1667L33.2942 10.8334H87.8154L87.2544 19.1087" stroke="#E0001B" stroke-width="2" stroke-miterlimit="10" stroke-linejoin="round"/>
<path d="M83.1251 73.5417L80.3203 113.75H42.2106L38.7501 70.2084" stroke="#E0001B" stroke-width="2" stroke-miterlimit="10" stroke-linejoin="round"/>
<path d="M34.7343 26.6765C34.7343 26.6765 45.0106 29.5473 54.6128 26.6765C67.5219 22.8181 74.1992 26.6765 74.1992 26.6765" stroke="#E0001B" stroke-width="2" stroke-miterlimit="10" stroke-linejoin="round"/>
<path d="M37.9893 71.1289L33.1929 76.8446L5.83333 44.2384H60.5548L37.9893 71.1289Z" stroke="#E0001B" stroke-width="2" stroke-miterlimit="10" stroke-linejoin="round"/>
<path d="M33.1552 113.75V76.8445" stroke="#E0001B" stroke-width="2" stroke-miterlimit="10"/>
<path d="M13.3333 53.3391C13.3333 53.3391 23.7492 56.1388 33.4809 53.3391C46.5651 49.5763 53.3333 53.3391 53.3333 53.3391" stroke="#E0001B" stroke-width="2" stroke-miterlimit="10"/>
<path d="M33.0492 67.7562C35.3936 67.7562 37.2941 65.8557 37.2941 63.5114C37.2941 61.167 35.3936 59.2665 33.0492 59.2665C30.7048 59.2665 28.8043 61.167 28.8043 63.5114C28.8043 65.8557 30.7048 67.7562 33.0492 67.7562Z" stroke="#E0001B" stroke-width="2" stroke-miterlimit="10"/>
</svg>
