<svg width="117" height="116" viewBox="0 0 117 116" fill="none" xmlns="http://www.w3.org/2000/svg">
<path d="M78.0482 61.6518C98.2876 56.5348 111.559 37.4884 111.559 14.1777H95.4199" stroke="#E0001B" stroke-width="2" stroke-linecap="round" stroke-linejoin="round"/>
<path d="M21.5883 14.0503H5.44077C5.44077 36.6758 19.6202 55.7475 38.9451 61.5045C27.8007 45.8918 21.0666 25.6118 21.0666 3.43652H95.663C95.663 7.03764 95.497 10.5677 95.1413 14.0503H95.1176C93.3392 32.0796 87.1031 48.4268 77.7608 61.5282C73.7536 67.1431 69.1535 72.1658 64.103 76.4539C60.7122 79.3443 55.9937 79.3443 52.6029 76.4539C47.5524 72.1895 42.9523 67.1668 38.9451 61.5282" stroke="#E0001B" stroke-width="2" stroke-linecap="round" stroke-linejoin="round"/>
<path d="M58.5186 78.7271V112.539M32.5074 112.563H86.8556M58.5186 43.0145L47.3404 51.1883C46.3674 51.8773 45.0858 50.9507 45.4418 49.8101L49.7612 36.6228L38.5356 28.4966C37.5625 27.8075 38.0609 26.2631 39.2475 26.2631L53.1075 26.3106L57.3557 13.0995C57.7117 11.959 59.3255 11.959 59.7052 13.0995L63.9534 26.3106L77.8134 26.2631C79 26.2631 79.4984 27.7838 78.5254 28.4966L67.2997 36.6228L71.6191 49.8101C71.9988 50.9507 70.6935 51.9011 69.7205 51.1883L58.5186 43.0145Z" stroke="#E0001B" stroke-width="2" stroke-linecap="round" stroke-linejoin="round"/>
</svg>
