<svg width="125" height="124" viewBox="0 0 125 124" fill="none" xmlns="http://www.w3.org/2000/svg">
<path d="M96.3247 73.8799H82.4888" stroke="#1D1D1B" stroke-width="2" stroke-linecap="round" stroke-linejoin="round"/>
<path d="M97.3525 54.0342C93.6669 38.2254 79.4884 26.4534 62.5566 26.4534C45.6248 26.4534 31.4463 38.2298 27.7607 54.0342" stroke="#1D1D1B" stroke-width="2" stroke-linecap="round" stroke-linejoin="round"/>
<path d="M28.7925 73.8799C33.6401 87.8633 46.9254 97.9053 62.5607 97.9053C78.1961 97.9053 91.4814 87.8633 96.329 73.8799" stroke="#1D1D1B" stroke-width="2" stroke-linecap="round" stroke-linejoin="round"/>
<path d="M84.1926 54.0343C80.8973 45.2888 72.4553 39.071 62.5607 39.071C52.6661 39.071 44.2197 45.2931 40.9287 54.0343" stroke="#1D1D1B" stroke-width="2" stroke-linecap="round" stroke-linejoin="round"/>
<path d="M42.624 73.8799C46.6391 80.7046 54.0622 85.2877 62.5563 85.2877C71.0504 85.2877 78.4735 80.7046 82.4886 73.8799" stroke="#1D1D1B" stroke-width="2" stroke-linecap="round" stroke-linejoin="round"/>
<path d="M82.4888 73.8797H16.2271C15.9886 73.8797 15.7935 73.6846 15.7935 73.4462V54.4678C15.7935 54.2293 15.9886 54.0342 16.2271 54.0342H108.773C109.012 54.0342 109.207 54.2293 109.207 54.4678V73.4462C109.207 73.6846 109.012 73.8797 108.773 73.8797H96.3247" stroke="#1D1D1B" stroke-width="2" stroke-linecap="round" stroke-linejoin="round"/>
</svg>
