<svg width="133" height="135" viewBox="0 0 133 135" fill="none" xmlns="http://www.w3.org/2000/svg">
<path d="M69.0967 117.9C96.5195 117.9 118.75 95.3352 118.75 67.5C118.75 39.6649 96.5195 17.1 69.0967 17.1C41.6739 17.1 19.4433 39.6649 19.4433 67.5C19.4433 95.3352 41.6739 117.9 69.0967 117.9Z" stroke="#E0001B" stroke-width="2" stroke-miterlimit="10"/>
<path d="M7.09327 33.7502V101.122" stroke="#E0001B" stroke-width="2" stroke-miterlimit="10" stroke-linecap="round"/>
<path d="M130.34 33.75V101.25" stroke="#E0001B" stroke-width="2" stroke-miterlimit="10" stroke-linecap="round"/>
<path d="M2.21667 49.05H11.97" stroke="#E0001B" stroke-width="2" stroke-miterlimit="10"/>
<path d="M11.97 33.75V49.05" stroke="#E0001B" stroke-width="2" stroke-miterlimit="10" stroke-linecap="round"/>
<path d="M2.21939 33.7501V49.0501" stroke="#E0001B" stroke-width="2" stroke-miterlimit="10" stroke-linecap="round"/>
<path d="M128.123 33.7501V72.4501" stroke="#E0001B" stroke-width="2" stroke-miterlimit="10" stroke-linecap="round"/>
<path d="M69.0967 104.014C88.9642 104.014 105.07 87.6663 105.07 67.5C105.07 47.3337 88.9642 30.9857 69.0967 30.9857C49.2291 30.9857 33.1233 47.3337 33.1233 67.5C33.1233 87.6663 49.2291 104.014 69.0967 104.014Z" stroke="#E0001B" stroke-width="2" stroke-miterlimit="10"/>
</svg>
