<svg width="117" height="116" viewBox="0 0 117 116" fill="none" xmlns="http://www.w3.org/2000/svg">
<path d="M57.6756 104.643L57.2863 106.334L38.6091 102.022C16.9875 97.0331 3.50876 75.4639 8.49786 53.8423L12.8097 35.165L31.4837 39.4737C31.9581 39.5816 32.4259 39.6994 32.8905 39.8303C26.0137 56.4529 29.331 76.2981 42.8425 89.8096L57.6756 104.643Z" stroke="#E0001B" stroke-width="2" stroke-miterlimit="10" stroke-linejoin="round"/>
<path d="M78.4467 102.022L59.7695 106.334L59.3016 104.299L73.7945 89.8063C74.9461 88.6514 76.0257 87.4508 77.0301 86.2076C81.8753 80.237 84.9898 73.3275 86.3834 66.1498C88.0781 57.4082 87.2144 48.2676 83.7891 39.9317C84.3747 39.7648 84.9701 39.6111 85.5688 39.4737L104.246 35.165L108.558 53.8423C113.547 75.4639 100.068 97.0331 78.4467 102.022Z" stroke="#E0001B" stroke-width="2" stroke-miterlimit="10" stroke-linejoin="round"/>
<path d="M86.3834 66.1498C84.9897 73.3276 81.8752 80.237 77.0301 86.2076C76.0257 87.4508 74.9461 88.6514 73.7945 89.8063L59.3016 104.299L58.3168 105.284L57.6756 104.643L42.8425 89.8096C29.331 76.2981 26.0137 56.453 32.8904 39.8303C35.1282 34.4159 38.4455 29.345 42.8457 24.9447L58.3201 9.47363L73.7945 24.9447C76.0159 27.1694 77.9657 29.5674 79.6375 32.0931C81.2929 34.5925 82.68 37.2196 83.7891 39.9317C87.2144 48.2676 88.078 57.4082 86.3834 66.1498Z" stroke="#E0001B" stroke-width="2" stroke-miterlimit="10" stroke-linejoin="round"/>
</svg>
