<svg width="125" height="124" viewBox="0 0 125 124" fill="none" xmlns="http://www.w3.org/2000/svg">
<path d="M86.8702 14.5136L56.8968 8.82837C50.4472 7.60504 44.227 11.8418 43.0037 18.2914L28.3415 95.5933C27.1181 102.043 31.3549 108.263 37.8045 109.486L67.7779 115.172C74.2275 116.395 80.4476 112.158 81.671 105.709L96.3332 28.4067C97.5566 21.9571 93.3198 15.7369 86.8702 14.5136Z" stroke="#282828" stroke-width="2" stroke-miterlimit="10"/>
<path d="M84.528 13.7183L84.0496 16.2389C83.8916 17.0768 83.0766 17.6308 82.2387 17.4728L61.7994 13.5969C60.9615 13.439 60.4075 12.624 60.5655 11.7861L61.0439 9.26551" stroke="#282828" stroke-width="1.5" stroke-miterlimit="10"/>
<path d="M44.2773 101.586L64.4236 105.406" stroke="#282828" stroke-width="1.5" stroke-miterlimit="10"/>
<path d="M63.4662 60.2127L50.7786 63.9214L55.181 52.1267L47.9604 41.8109L60.5381 42.3535L68.1181 32.2987L71.488 44.43L83.3926 48.5302L72.8983 55.4852L72.6762 68.0743L63.1274 60.1486" stroke="#282828" stroke-width="1.5" stroke-miterlimit="10"/>
</svg>
